<svg width="545" height="579" viewBox="0 0 545 579" fill="none" xmlns="http://www.w3.org/2000/svg">
<g clip-path="url(#clip0)">
<path opacity="0.5" d="M89.8602 579C66.9032 579 43.9462 573.964 26.4552 563.89C9.40143 553.817 0 540.678 0 526.663C0 512.649 9.40143 499.51 26.4552 489.656C61.4373 469.509 118.283 469.509 153.265 489.656C170.319 499.51 179.72 512.649 179.72 526.882C179.72 540.897 170.319 554.036 153.265 564.109C135.993 573.964 112.817 579 89.8602 579ZM89.8602 475.86C67.1219 475.86 44.3835 480.896 27.1111 490.75C10.4946 500.386 1.31183 513.087 1.31183 526.663C1.31183 540.24 10.4946 552.941 27.1111 562.577C61.6559 582.504 117.846 582.504 152.391 562.577C169.007 552.941 178.19 540.24 178.19 526.663C178.19 513.087 169.007 500.386 152.391 490.75C135.337 480.896 112.599 475.86 89.8602 475.86Z" fill="#42E8E0"/>
<path d="M89.8602 540.678C66.9032 540.678 43.9462 535.642 26.4552 525.569C9.40143 515.495 0 502.356 0 488.342C0 474.327 9.40143 461.188 26.4552 451.334C61.4373 431.187 118.283 431.187 153.265 451.334C170.319 461.188 179.72 474.327 179.72 488.561C179.72 502.575 170.319 515.714 153.265 525.569C135.993 535.642 112.817 540.678 89.8602 540.678ZM89.8602 437.538C67.1219 437.538 44.3835 442.574 27.1111 452.429C10.4946 462.064 1.31183 474.765 1.31183 488.342C1.31183 501.919 10.4946 514.619 27.1111 524.255C61.6559 544.182 117.846 544.182 152.391 524.255C169.007 514.619 178.19 501.919 178.19 488.342C178.19 474.765 169.007 462.064 152.391 452.429C135.337 442.574 112.599 437.538 89.8602 437.538Z" fill="#42E8E0"/>
<path opacity="0.4" d="M165.946 432.063C162.447 428.779 158.075 425.494 153.046 422.647C145.175 418.048 136.211 414.545 126.591 412.136C144.956 423.742 144.3 441.918 124.842 453.086C104.727 464.692 72.3685 464.692 52.2538 453.086C33.451 442.137 32.3578 425.056 48.7556 413.231C40.8847 415.64 33.451 418.705 26.6732 422.647C21.6445 425.494 17.2718 428.779 13.7736 432.063H0.655273V459.217C0.655273 472.356 9.40079 485.714 26.8918 495.787C61.6553 515.933 118.283 515.933 153.046 495.787C170.537 485.714 179.283 472.575 179.283 459.217V432.063H165.946Z" fill="#42E8E0"/>
<path d="M54.2212 424.618C73.8986 413.231 105.82 413.231 125.497 424.618C128.777 426.37 131.4 428.56 133.587 430.749C144.737 419.581 142.114 405.128 125.497 395.493C105.82 384.106 73.8986 384.106 54.2212 395.493C37.8233 405.128 34.981 419.581 46.1316 430.749C48.5366 428.56 51.1602 426.589 54.2212 424.618Z" fill="#5351AF"/>
<path d="M165.947 416.297C162.448 413.012 158.076 409.727 153.047 406.88C145.176 402.282 136.212 398.778 126.592 396.369C144.957 407.975 144.302 426.151 124.843 437.319C104.728 448.925 72.3696 448.925 52.2549 437.319C33.4521 426.37 32.3589 409.289 48.7567 397.464C40.8857 399.873 33.4521 402.939 26.6743 406.88C21.8642 409.727 17.4915 413.012 13.9933 416.297H0.875V443.45C0.875 456.589 9.62052 469.947 27.1116 480.02C61.875 500.167 118.502 500.167 153.266 480.02C170.757 469.947 179.502 456.808 179.502 443.45V416.297H165.947Z" fill="#BCBEFF"/>
<path opacity="0.3" d="M153.046 406.88C145.175 402.282 136.211 398.778 126.591 396.369C144.956 407.975 144.3 426.151 124.841 437.319C115.221 443.012 102.54 445.859 89.8594 446.078V495.13C112.598 495.13 135.555 490.093 153.046 480.02C170.537 469.947 179.282 456.808 179.282 443.45V416.297H166.164C162.447 413.012 158.074 409.727 153.046 406.88Z" fill="#0F054C"/>
<path opacity="0.5" d="M153.046 406.88C145.175 402.282 136.211 398.778 126.591 396.369C144.956 407.975 144.3 426.151 124.841 437.319C115.221 443.012 102.54 445.859 89.8594 446.078V495.13C112.598 495.13 135.555 490.093 153.046 480.02C170.537 469.947 179.282 456.808 179.282 443.45V416.297H166.164C162.447 413.012 158.074 409.727 153.046 406.88Z" fill="#8886CA"/>
<path d="M153.047 382.135C118.284 361.989 61.6563 361.989 26.8929 382.135C-7.87055 402.282 -7.87055 434.91 26.8929 455.056C61.6563 475.203 118.284 475.203 153.047 455.056C187.81 434.91 187.81 402.282 153.047 382.135ZM125.717 439.509C105.603 451.115 73.2442 451.115 53.1295 439.509C33.0148 427.903 33.0148 409.07 53.1295 397.464C73.2442 385.858 105.603 385.858 125.717 397.464C145.613 409.07 145.613 427.903 125.717 439.509Z" fill="url(#paint0_linear)"/>
<path d="M153.047 452.21C118.284 472.356 61.6565 472.356 26.8931 452.21C10.0579 442.574 1.31243 429.874 0.875151 417.173C0.219237 430.749 8.96476 444.545 26.8931 455.056C61.6565 475.203 118.284 475.203 153.047 455.056C170.976 444.545 179.721 430.749 179.065 417.173C178.628 429.874 169.882 442.574 153.047 452.21Z" fill="white"/>
<path d="M125.717 394.836C105.602 383.23 73.2438 383.23 53.1291 394.836C42.4158 400.968 37.3872 409.07 38.0431 417.172C38.699 409.946 43.509 402.939 53.1291 397.464C73.2438 385.858 105.602 385.858 125.717 397.464C135.118 402.939 140.147 409.946 140.803 417.172C141.24 409.07 136.212 400.968 125.717 394.836Z" fill="white"/>
<path d="M148.891 381.916C116.533 363.084 63.8411 363.084 31.4827 381.916C-0.875739 400.749 -0.875739 431.187 31.4827 449.801C63.8411 468.633 116.533 468.633 148.891 449.801C181.468 431.187 181.468 400.749 148.891 381.916ZM125.278 436.224C105.82 447.392 74.5544 447.392 55.0956 436.224C35.6368 425.056 35.6368 406.88 55.0956 395.712C74.5544 384.544 105.82 384.544 125.278 395.712C144.737 406.88 144.737 425.056 125.278 436.224Z" fill="url(#paint1_linear)"/>
<path opacity="0.4" d="M90.2968 444.764C117.707 444.764 139.928 431.921 139.928 416.078C139.928 400.235 117.707 387.391 90.2968 387.391C62.8865 387.391 40.666 400.235 40.666 416.078C40.666 431.921 62.8865 444.764 90.2968 444.764Z" fill="#42E8E0"/>
<path opacity="0.5" d="M139.709 415.421L139.928 156.365H40.666V415.859C40.666 423.304 45.4761 430.749 55.0961 436.443C74.5549 447.611 105.82 447.611 125.279 436.443C135.336 430.53 140.146 422.866 139.709 415.421Z" fill="url(#paint2_linear)"/>
<path opacity="0.4" d="M123.749 314.689C125.44 314.689 126.81 313.317 126.81 311.623C126.81 309.93 125.44 308.558 123.749 308.558C122.059 308.558 120.688 309.93 120.688 311.623C120.688 313.317 122.059 314.689 123.749 314.689Z" fill="#42E8E0"/>
<path opacity="0.4" d="M72.1498 178.92C73.8403 178.92 75.2107 177.548 75.2107 175.855C75.2107 174.162 73.8403 172.789 72.1498 172.789C70.4593 172.789 69.0889 174.162 69.0889 175.855C69.0889 177.548 70.4593 178.92 72.1498 178.92Z" fill="#42E8E0"/>
<path opacity="0.4" d="M80.8959 277.243C80.8959 279.652 78.9282 281.623 76.5232 281.623C74.1181 281.623 72.1504 279.652 72.1504 277.243C72.1504 274.834 74.1181 272.864 76.5232 272.864C78.9282 272.864 80.8959 274.834 80.8959 277.243Z" fill="#42E8E0"/>
<path opacity="0.8" d="M69.7455 355.201C71.436 355.201 72.8064 353.828 72.8064 352.135C72.8064 350.442 71.436 349.069 69.7455 349.069C68.055 349.069 66.6846 350.442 66.6846 352.135C66.6846 353.828 68.055 355.201 69.7455 355.201Z" fill="#42E8E0"/>
<path opacity="0.8" d="M116.971 226.877C116.971 229.505 114.784 231.695 112.161 231.695C109.537 231.695 107.351 229.505 107.351 226.877C107.351 224.25 109.537 222.06 112.161 222.06C114.784 222.279 116.971 224.25 116.971 226.877Z" fill="#42E8E0"/>
<path opacity="0.8" d="M109.975 245.491C111.786 245.491 113.254 244.02 113.254 242.206C113.254 240.392 111.786 238.921 109.975 238.921C108.164 238.921 106.695 240.392 106.695 242.206C106.695 244.02 108.164 245.491 109.975 245.491Z" fill="#42E8E0"/>
<path opacity="0.8" d="M158.076 343.814C158.076 346.441 155.89 348.631 153.266 348.631C150.642 348.631 148.456 346.441 148.456 343.814C148.456 341.186 150.642 338.996 153.266 338.996C155.89 338.996 158.076 341.186 158.076 343.814Z" fill="#42E8E0"/>
<path opacity="0.8" d="M156.545 334.179C158.477 334.179 160.043 332.61 160.043 330.675C160.043 328.74 158.477 327.171 156.545 327.171C154.613 327.171 153.047 328.74 153.047 330.675C153.047 332.61 154.613 334.179 156.545 334.179Z" fill="#42E8E0"/>
<path opacity="0.8" d="M166.602 331.332C167.81 331.332 168.789 330.351 168.789 329.142C168.789 327.933 167.81 326.952 166.602 326.952C165.395 326.952 164.416 327.933 164.416 329.142C164.416 330.351 165.395 331.332 166.602 331.332Z" fill="#42E8E0"/>
<path opacity="0.8" d="M177.753 324.324C178.409 324.762 178.627 325.638 178.19 326.295C177.753 326.952 176.878 327.171 176.222 326.733C175.566 326.295 175.348 325.419 175.785 324.762C176.222 324.105 177.097 323.886 177.753 324.324Z" fill="#42E8E0"/>
<path opacity="0.8" d="M182.125 317.755C182.999 318.412 183.437 319.726 182.781 320.602C182.125 321.478 180.813 321.697 179.939 321.259C179.064 320.602 178.627 319.288 179.283 318.412C179.939 317.317 181.032 317.098 182.125 317.755Z" fill="#42E8E0"/>
<path opacity="0.8" d="M177.971 313.156C179.064 314.032 179.502 315.565 178.627 316.66C177.753 317.755 176.222 318.193 175.129 317.317C174.036 316.441 173.599 314.908 174.473 313.813C175.348 312.499 176.878 312.28 177.971 313.156Z" fill="#42E8E0"/>
<path opacity="0.8" d="M31.7021 216.366C31.7021 218.994 29.5157 221.184 26.8921 221.184C24.2684 221.184 22.082 218.994 22.082 216.366C22.082 213.739 24.2684 211.549 26.8921 211.549C29.5157 211.768 31.7021 213.739 31.7021 216.366Z" fill="#42E8E0"/>
<path opacity="0.8" d="M12.4622 220.746C14.2734 220.746 15.7418 219.275 15.7418 217.461C15.7418 215.647 14.2734 214.177 12.4622 214.177C10.6509 214.177 9.18262 215.647 9.18262 217.461C9.18262 219.275 10.6509 220.746 12.4622 220.746Z" fill="#42E8E0"/>
<path opacity="0.8" d="M17.4912 226.878C17.4912 228.41 16.1794 229.724 14.6489 229.724C13.1185 229.724 11.8066 228.41 11.8066 226.878C11.8066 225.345 13.1185 224.031 14.6489 224.031C16.1794 224.031 17.4912 225.345 17.4912 226.878Z" fill="#42E8E0"/>
<path opacity="0.8" d="M12.2432 235.418C13.2092 235.418 13.9923 234.633 13.9923 233.666C13.9923 232.698 13.2092 231.914 12.2432 231.914C11.2772 231.914 10.4941 232.698 10.4941 233.666C10.4941 234.633 11.2772 235.418 12.2432 235.418Z" fill="#42E8E0"/>
<path opacity="0.8" d="M3.93488 233.666C4.5908 233.885 5.02807 234.761 4.80944 235.418C4.5908 236.075 3.71625 236.513 3.06033 236.294C2.40442 236.075 1.96714 235.199 2.18578 234.542C2.40442 233.885 3.06033 233.447 3.93488 233.666Z" fill="#42E8E0"/>
<path opacity="0.8" d="M158.076 224.469C158.076 227.097 155.89 229.286 153.266 229.286C150.642 229.286 148.456 227.097 148.456 224.469C148.456 221.841 150.642 219.651 153.266 219.651C155.89 219.87 158.076 221.841 158.076 224.469Z" fill="#42E8E0"/>
<path opacity="0.8" d="M157.857 215.052C159.789 215.052 161.355 213.484 161.355 211.549C161.355 209.614 159.789 208.045 157.857 208.045C155.925 208.045 154.358 209.614 154.358 211.549C154.358 213.484 155.925 215.052 157.857 215.052Z" fill="#42E8E0"/>
<path opacity="0.8" d="M167.695 209.797C169.023 209.797 170.1 208.718 170.1 207.388C170.1 206.058 169.023 204.979 167.695 204.979C166.367 204.979 165.29 206.058 165.29 207.388C165.29 208.718 166.367 209.797 167.695 209.797Z" fill="#42E8E0"/>
<path opacity="0.8" d="M177.316 208.264C177.316 209.14 176.441 210.016 175.566 210.016C174.692 210.016 173.817 209.14 173.817 208.264C173.817 207.388 174.692 206.512 175.566 206.512C176.441 206.512 177.316 207.169 177.316 208.264Z" fill="#42E8E0"/>
<path opacity="0.8" d="M180.377 203.008C180.377 203.446 179.94 203.884 179.502 203.884C179.065 203.884 178.628 203.446 178.628 203.008C178.628 202.571 179.065 202.133 179.502 202.133C179.94 202.133 180.377 202.352 180.377 203.008Z" fill="#42E8E0"/>
</g>
<path opacity="0.5" d="M346.512 471C313.22 471 279.927 463.695 254.561 449.086C229.829 434.794 216.195 415.738 216.195 395.094C216.195 374.767 229.829 355.711 254.561 341.419C305.293 312.2 387.732 312.2 438.464 341.419C463.195 355.711 476.829 374.767 476.829 395.411C476.829 415.738 463.195 434.794 438.464 449.086C413.098 463.695 379.805 471 346.512 471ZM346.512 321.728C313.537 321.728 280.561 329.033 255.512 343.325C231.415 357.299 218.098 375.72 218.098 395.411C218.098 415.102 231.415 433.523 255.512 447.498C305.61 476.399 387.098 476.399 437.195 447.498C461.293 433.523 474.61 415.102 474.61 395.411C474.61 375.72 461.293 357.299 437.195 343.325C412.147 328.715 379.171 321.728 346.512 321.728Z" fill="#42E8E0"/>
<path d="M346.512 415.738C313.22 415.738 279.927 408.433 254.561 393.823C229.829 379.531 216.195 360.475 216.195 339.831C216.195 319.187 229.829 300.449 254.561 285.839C305.293 256.62 387.732 256.62 438.464 285.839C463.195 300.131 476.829 319.187 476.829 339.831C476.829 360.158 463.195 379.214 438.464 393.823C413.098 408.115 379.805 415.42 346.512 415.738ZM346.512 266.148C313.537 266.148 280.561 273.453 255.512 287.745C231.415 301.719 218.098 320.14 218.098 339.831C218.098 359.522 231.415 377.943 255.512 391.918C305.61 420.819 387.098 420.819 437.195 391.918C461.293 377.943 474.61 359.522 474.61 339.831C474.61 320.14 461.293 301.719 437.195 287.745C412.147 273.453 379.171 266.148 346.512 266.148Z" fill="#42E8E0"/>
<path opacity="0.4" d="M456.536 258.208C451.463 253.444 445.122 248.68 437.829 244.552C426.414 237.882 413.414 232.8 399.463 229.307C426.097 246.14 425.146 272.5 396.927 288.698C367.756 305.531 320.829 305.531 291.658 288.698C264.39 272.818 262.805 248.045 286.585 230.895C275.171 234.388 264.39 238.835 254.561 244.552C247.268 248.68 240.927 253.444 235.853 258.208H216.829V297.591C216.829 316.647 229.512 336.02 254.878 350.63C305.293 379.849 387.414 379.849 437.829 350.63C463.195 336.02 475.878 316.964 475.878 297.591V258.208H456.536Z" fill="#42E8E0"/>
<path d="M294.828 247.41C323.365 230.895 369.658 230.895 398.194 247.41C402.95 249.951 406.755 253.127 409.926 256.303C426.097 240.105 422.292 219.144 398.194 205.169C369.658 188.654 323.365 188.654 294.828 205.169C271.048 219.144 266.926 240.105 283.097 256.303C286.267 253.127 290.072 249.951 294.828 247.41Z" fill="#5351AF"/>
<path d="M456.536 235.341C451.463 230.577 445.122 225.813 437.829 221.684C426.414 215.015 413.414 209.933 399.463 206.44C426.097 223.272 425.146 249.633 396.927 265.831C367.756 282.664 320.829 282.664 291.658 265.831C264.39 249.951 262.805 225.178 286.585 208.028C275.171 211.521 264.39 215.968 254.561 221.684C247.268 225.813 240.927 230.577 235.853 235.341H216.829V274.724C216.829 293.78 229.512 313.153 254.878 327.763C305.293 356.982 387.414 356.982 437.829 327.763C463.195 313.153 475.878 294.097 475.878 274.724V235.341H456.536Z" fill="#BCBEFF"/>
<path opacity="0.3" d="M437.828 221.684C426.414 215.015 413.414 209.933 399.463 206.44C426.097 223.272 425.146 249.633 396.926 265.831C382.975 274.088 364.585 278.217 346.194 278.535V349.359C379.17 349.359 412.463 342.055 437.828 327.445C463.194 312.835 475.877 293.78 475.877 274.406V235.341H456.853C451.463 230.26 445.121 225.813 437.828 221.684Z" fill="#0F054C"/>
<path opacity="0.5" d="M437.828 221.684C426.414 215.015 413.414 209.933 399.463 206.44C426.097 223.272 425.146 249.633 396.926 265.831C382.975 274.088 364.585 278.217 346.194 278.535V349.359C379.17 349.359 412.463 342.055 437.828 327.445C463.194 312.835 475.877 293.78 475.877 274.406V235.341H456.853C451.463 230.26 445.121 225.813 437.828 221.684Z" fill="#8886CA"/>
<path d="M437.83 185.478C387.415 156.259 305.293 156.259 254.878 185.478C204.464 214.697 204.464 262.02 254.878 291.239C305.293 320.458 387.415 320.458 437.83 291.239C488.244 262.02 488.561 214.697 437.83 185.478ZM398.195 269.007C369.025 285.84 322.098 285.84 292.927 269.007C263.756 252.174 263.756 224.86 292.927 208.028C322.098 191.195 369.025 191.195 398.195 208.028C427.366 224.86 427.366 252.174 398.195 269.007Z" fill="url(#paint3_linear)"/>
<path d="M437.828 287.427C387.414 316.647 305.292 316.647 254.877 287.427C230.463 273.453 217.78 255.032 217.145 236.612C216.194 256.303 228.877 276.312 254.877 291.556C305.292 320.775 387.414 320.775 437.828 291.556C463.828 276.312 476.511 256.303 475.56 236.612C474.926 255.032 462.243 273.136 437.828 287.427Z" fill="white"/>
<path d="M398.194 203.899C369.023 187.066 322.096 187.066 292.925 203.899C277.389 212.792 270.096 224.543 271.047 236.294C271.998 225.813 278.974 215.65 292.925 207.71C322.096 190.877 369.023 190.877 398.194 207.71C411.828 215.65 419.12 225.813 420.072 236.294C420.706 224.86 413.73 212.792 398.194 203.899Z" fill="white"/>
<path d="M432.122 185.478C385.195 158.164 308.78 158.164 261.853 185.478C214.926 212.792 214.926 256.938 261.853 283.934C308.78 311.247 385.195 311.247 432.122 283.934C479.048 256.938 479.048 212.792 432.122 185.478ZM397.878 264.243C369.658 280.44 324.317 280.44 296.097 264.243C267.878 248.045 267.878 221.684 296.097 205.487C324.317 189.289 369.658 189.289 397.878 205.487C425.78 221.684 425.78 248.045 397.878 264.243Z" fill="url(#paint4_linear)"/>
<path opacity="0.4" d="M346.829 276.312C386.58 276.312 418.805 257.684 418.805 234.706C418.805 211.728 386.58 193.101 346.829 193.101C307.078 193.101 274.854 211.728 274.854 234.706C274.854 257.684 307.078 276.312 346.829 276.312Z" fill="#42E8E0"/>
<path d="M343.34 217.556C413.211 217.556 469.853 184.709 469.853 144.19C469.853 103.672 413.211 70.8247 343.34 70.8247C273.47 70.8247 216.828 103.672 216.828 144.19C216.828 184.709 273.47 217.556 343.34 217.556Z" fill="url(#paint5_linear)"/>
<path opacity="0.48" d="M470.171 120.053H467C461.927 107.031 450.512 94.6446 433.073 84.4814C383.61 55.8975 303.39 55.8975 253.927 84.4814C237.439 94.0094 226.341 105.761 220.951 117.829H216.829V134.027C215.878 153.4 228.244 173.092 253.927 188.019C303.39 216.603 383.61 216.603 433.073 188.019C457.805 173.727 470.171 154.988 470.171 136.25V120.053Z" fill="url(#paint6_linear)"/>
<path opacity="0.48" d="M470.171 120.053H467C461.927 107.031 450.512 94.6446 433.073 84.4814C383.61 55.8975 303.39 55.8975 253.927 84.4814C237.439 94.0094 226.341 105.761 220.951 117.829H216.829V134.027C215.878 153.4 228.244 173.092 253.927 188.019C303.39 216.603 383.61 216.603 433.073 188.019C457.805 173.727 470.171 154.988 470.171 136.25V120.053Z" fill="url(#paint7_linear)"/>
<path opacity="0.48" d="M470.171 120.053H467C461.927 107.031 450.512 94.6446 433.073 84.4814C383.61 55.8975 303.39 55.8975 253.927 84.4814C237.439 94.0094 226.341 105.761 220.951 117.829H216.829V134.027C215.878 153.4 228.244 173.092 253.927 188.019C303.39 216.603 383.61 216.603 433.073 188.019C457.805 173.727 470.171 154.988 470.171 136.25V120.053Z" fill="url(#paint8_linear)"/>
<path d="M470.171 114.018H467C461.927 100.997 450.512 88.6102 433.073 78.447C383.61 49.863 303.39 49.863 253.927 78.447C237.439 87.975 226.341 99.7262 220.951 111.795H216.829V127.993C215.878 147.366 228.244 167.057 253.927 181.984C303.39 210.568 383.61 210.568 433.073 181.984C457.805 167.692 470.171 148.954 470.171 130.216V114.018Z" fill="url(#paint9_linear)"/>
<path opacity="0.48" d="M466.999 114.018C466.682 113.701 466.682 113.065 466.365 112.748V101.949H459.706V101.314C458.121 99.091 456.218 96.8678 453.999 94.6446V101.949H450.194V90.8334C448.292 89.2454 446.389 87.6574 444.487 86.0694V101.949H440.682V83.5286C438.779 82.2582 436.877 80.9878 434.974 79.7174V101.949H431.17V77.4942C429.267 76.5414 427.365 75.5886 425.462 74.6358V101.949H421.657V72.7302C419.755 71.7774 417.853 71.1423 415.95 70.1895V101.949H412.145V76.2238H406.438V101.949H402.633V83.211H396.926V101.949H393.121V90.5158H387.413V101.949H383.609V97.503H377.901V101.949H308.145V97.503H302.438V101.949H298.633V90.5158H292.926V101.949H289.121V83.211H283.413V101.949H279.609V76.2238H273.901V101.949H270.096V70.1895C268.194 70.8247 266.292 71.7774 264.389 72.7302V101.949H260.584V74.3182C258.682 75.271 256.779 76.2238 254.877 77.1766V101.632H251.072V79.3998C249.17 80.6702 247.267 81.9406 245.365 83.211V101.949H241.56V86.0694C239.657 87.6574 237.755 89.2454 235.853 90.8334V101.949H232.048V94.6446C229.828 96.8678 228.243 99.091 226.34 101.314V102.267H219.682V112.113H216.828V139.426C217.779 144.19 219.682 149.272 222.535 153.718V136.568H226.34V159.435C227.926 161.658 229.828 163.881 232.048 166.104V136.568H235.853V169.598C237.755 171.186 239.657 172.774 241.56 174.362V136.25H245.365V176.903C247.267 178.173 249.17 179.444 251.072 180.714V136.25H254.877V182.62C256.779 183.572 258.682 184.525 260.584 185.478V136.25H264.389V187.384C266.292 188.336 268.194 188.972 270.096 189.924V136.25H273.901V191.512C275.804 192.148 277.706 192.783 279.609 193.418V136.25H283.413V194.688C285.316 195.324 287.218 195.959 289.121 196.276V136.25H292.926V197.229C294.828 197.547 296.731 198.182 298.633 198.5V136.25H302.438V199.452C304.34 199.77 306.243 200.088 308.145 200.405V136.25H311.95V201.04C313.853 201.358 315.755 201.676 317.657 201.676V136.25H321.145V201.993C323.048 202.311 324.95 202.311 326.853 202.628V136.25H330.34V202.946C332.243 202.946 334.145 203.264 336.048 203.264V136.568H339.535V203.264C341.438 203.264 343.34 203.264 345.56 203.264V136.25H349.048V202.946C350.95 202.946 352.853 202.946 354.755 202.628V135.933H358.243V202.311C360.145 202.311 362.048 201.993 363.95 201.676V136.25H367.438V201.676C369.34 201.358 371.243 201.04 373.145 201.04V136.25H376.95V200.405C378.853 200.088 380.755 199.77 382.657 199.452V136.25H386.462V198.5C388.365 198.182 390.267 197.547 392.17 197.229V136.25H395.974V196.276C397.877 195.641 399.779 195.324 401.682 194.688V136.25H405.487V193.418C407.389 192.783 409.292 192.148 411.194 191.512V136.25H414.999V189.924C416.901 189.289 418.804 188.336 420.706 187.384V136.25H424.511V185.478C426.413 184.525 428.316 183.572 430.218 182.62V136.25H434.023V180.396C435.926 179.126 437.828 177.856 439.731 176.585V136.25H443.535V174.044C445.438 172.456 447.34 170.868 449.243 169.28V136.25H453.048V165.469C455.267 163.246 456.853 161.023 458.755 158.8V135.933H462.56V152.765C465.413 148.001 467.316 143.237 468.267 138.156V113.383L466.999 114.018Z" fill="url(#paint10_linear)"/>
<path d="M343.34 187.384C413.211 187.384 469.853 154.537 469.853 114.018C469.853 73.4996 413.211 40.6528 343.34 40.6528C273.47 40.6528 216.828 73.4996 216.828 114.018C216.828 154.537 273.47 187.384 343.34 187.384Z" fill="url(#paint11_linear)"/>
<g opacity="0.8">
<g opacity="0.8">
<g opacity="0.8">
<path opacity="0.8" d="M332.245 98.7733C331.928 99.4085 330.976 99.4085 330.342 98.7733L320.513 89.5629C319.879 88.9277 320.513 88.6101 321.464 88.6101L341.757 86.3869C342.708 86.3869 343.025 86.7045 342.708 87.0221L332.245 98.7733Z" fill="#42E8E0"/>
<path opacity="0.8" d="M319.243 104.808C318.292 105.125 317.658 104.808 317.975 104.173L319.877 91.151C319.877 90.5158 320.512 90.5158 320.829 90.8334L329.707 99.7262C330.341 100.361 330.024 100.679 329.073 100.997L319.243 104.808Z" fill="#42E8E0"/>
<path opacity="0.8" d="M344.292 83.5284C344.609 84.1636 344.292 84.4812 343.34 84.7988L322.731 87.3396C321.779 87.3396 321.462 87.022 322.097 86.7044L335.731 74.0004C336.365 73.3652 336.999 73.3652 337.633 74.0004L344.292 83.5284Z" fill="#42E8E0"/>
<path opacity="0.8" d="M316.39 102.902C316.39 103.537 316.073 103.537 315.756 102.902L311.634 94.6445C311.316 94.0093 311.634 93.3741 312.585 92.7389L317.024 90.1981C317.658 89.8805 318.292 89.8805 318.292 90.5157L316.39 102.902Z" fill="#42E8E0"/>
<path opacity="0.8" d="M320.511 85.4341C319.877 86.0693 319.56 85.7517 319.56 85.4341L319.243 80.3525C319.243 79.7173 319.877 79.0821 320.829 78.7645L331.609 74.6357C332.56 74.3181 332.56 74.6357 332.243 74.9533L320.511 85.4341Z" fill="#42E8E0"/>
<path opacity="0.8" d="M318.293 86.0694C318.293 86.7046 317.659 87.3398 317.025 87.6574L313.854 89.563C313.22 89.8806 312.903 89.8806 313.22 89.2454L317.342 82.2582C317.659 81.623 317.976 81.623 317.976 82.2582L318.293 86.0694Z" fill="#42E8E0"/>
<path opacity="0.8" d="M335.414 71.1421C335.731 71.4597 335.097 71.7773 334.146 72.0949L329.39 73.6829C328.439 74.0005 328.439 74.0005 329.073 73.6829L333.195 71.4597C334.463 71.1421 335.414 70.8245 335.414 71.1421Z" fill="#42E8E0"/>
<path opacity="0.8" d="M340.172 114.336C339.538 114.653 338.586 114.653 338.269 114.018L332.562 103.22C332.245 102.585 332.879 102.267 333.83 102.267L354.44 103.22C355.391 103.22 355.708 103.537 354.757 104.172L340.172 114.336Z" fill="#42E8E0"/>
<path opacity="0.8" d="M336.366 113.7C336.683 114.336 336.366 114.336 335.414 114.018L318.609 107.348C317.975 107.031 317.975 106.396 318.609 106.396L328.756 102.902C329.707 102.584 330.658 102.902 330.975 103.22L336.366 113.7Z" fill="#42E8E0"/>
<path opacity="0.8" d="M356.024 100.997C356.341 101.632 356.024 101.949 355.073 101.949L334.463 100.997C333.512 100.997 333.195 100.361 333.829 100.044L344.609 87.3397C345.244 86.7045 345.878 86.7045 346.195 87.3397L356.024 100.997Z" fill="#42E8E0"/>
<path opacity="0.8" d="M366.804 113.7C367.121 114.336 366.804 114.653 365.853 114.653L344.292 114.971C343.341 114.971 343.024 114.653 343.975 114.018L358.56 103.855C359.194 103.537 360.145 103.537 360.463 103.855L366.804 113.7Z" fill="#42E8E0"/>
<path opacity="0.8" d="M330.024 116.876C329.073 117.194 328.122 116.876 327.488 116.241L320.829 109.254C320.512 108.619 320.512 108.619 321.463 108.936L335.415 114.653C336.049 114.971 336.049 115.288 335.098 115.606L330.024 116.876Z" fill="#42E8E0"/>
<path opacity="0.8" d="M352.854 120.688C351.903 121.005 350.635 121.005 350.001 120.688L344.61 117.512C343.976 117.194 344.293 116.876 344.927 116.876L363.318 116.559C364.269 116.559 364.269 116.876 363.318 117.194L352.854 120.688Z" fill="#42E8E0"/>
<path opacity="0.8" d="M333.512 118.464C332.561 118.464 332.561 118.147 333.512 117.829L337.951 117.194C338.902 116.876 340.171 117.194 341.122 117.512L345.878 119.735C346.512 120.052 346.512 120.37 345.561 120.052L333.512 118.464Z" fill="#42E8E0"/>
<path opacity="0.8" d="M369.342 116.241C369.659 116.559 369.025 116.876 367.756 117.194L361.732 118.464C360.781 118.782 360.781 118.464 361.732 118.147L367.122 116.241C368.39 115.924 369.342 115.924 369.342 116.241Z" fill="#42E8E0"/>
<path opacity="0.8" d="M363.316 100.679C362.365 100.679 362.048 100.361 362.365 100.044L372.828 88.2924C373.145 87.6572 374.097 87.6572 374.731 88.2924L384.56 97.5028C385.194 98.138 384.56 98.4556 383.609 98.4556L363.316 100.679Z" fill="#42E8E0"/>
<path opacity="0.8" d="M385.512 95.9148C385.512 96.55 384.878 96.55 384.561 96.2324L375.682 87.3396C375.048 86.7044 375.365 86.3868 376.317 86.0692L386.146 82.5756C387.097 82.258 387.731 82.5756 387.414 83.2108L385.512 95.9148Z" fill="#42E8E0"/>
<path opacity="0.8" d="M369.975 113.065C369.341 113.7 368.707 113.7 368.073 113.065L361.097 103.537C360.78 102.902 361.097 102.584 362.049 102.267L382.658 99.726C383.61 99.726 383.927 100.044 383.293 100.361L369.975 113.065Z" fill="#42E8E0"/>
<path opacity="0.8" d="M393.756 92.4212C394.073 93.0564 393.756 93.6916 392.805 94.3268L388.366 96.8676C387.732 97.1852 387.098 97.1852 387.098 96.55L388.683 84.7988C388.683 84.1636 389 84.1636 389.317 84.7988L393.756 92.4212Z" fill="#42E8E0"/>
<path opacity="0.8" d="M385.829 107.031C385.829 107.666 385.195 108.301 384.244 108.619L373.463 112.748C372.512 113.065 372.512 112.748 372.829 112.43L384.244 101.632C384.878 100.997 385.195 101.314 385.195 101.632L385.829 107.031Z" fill="#42E8E0"/>
<path opacity="0.8" d="M387.732 104.808C387.415 105.443 387.098 105.443 387.098 104.808V100.997C387.098 100.361 387.732 99.7261 388.366 99.4085L391.537 97.5029C392.171 97.1853 392.488 97.1853 392.171 97.8205L387.732 104.808Z" fill="#42E8E0"/>
<path opacity="0.8" d="M371.561 115.924C370.927 116.241 369.976 116.241 369.976 116.241C369.659 115.924 370.293 115.606 371.244 115.289L376 113.701C376.952 113.383 376.952 113.383 376.317 113.701L371.561 115.924Z" fill="#42E8E0"/>
<path opacity="0.8" d="M370.927 83.8461C371.244 84.4813 370.61 84.7989 369.658 84.7989L349.049 83.8461C348.097 83.8461 347.78 83.5285 348.732 82.8933L363.317 72.7301C363.951 72.4125 364.902 72.4125 365.219 73.0477L370.927 83.8461Z" fill="#42E8E0"/>
<path opacity="0.8" d="M376.317 84.4814C375.365 84.799 374.414 84.4814 374.097 84.1638L368.707 73.683C368.39 73.0478 368.707 73.0478 369.658 73.3654L386.463 80.035C387.097 80.3526 387.097 80.9878 386.463 80.9878L376.317 84.4814Z" fill="#42E8E0"/>
<path opacity="0.8" d="M360.464 100.044C359.83 100.679 359.196 100.679 358.879 100.044L349.05 86.0693C348.732 85.4341 349.05 85.1165 350.001 85.1165L370.611 86.0693C371.562 86.0693 371.879 86.7045 371.245 87.0221L360.464 100.044Z" fill="#42E8E0"/>
<path opacity="0.8" d="M347.146 82.8934C346.512 83.211 345.56 83.211 345.243 82.8934L338.585 73.3654C338.268 72.7302 338.585 72.4126 339.536 72.4126L361.097 72.095C362.048 72.095 362.365 72.4126 361.414 73.0478L347.146 82.8934Z" fill="#42E8E0"/>
<path opacity="0.8" d="M369.659 72.4125C369.025 72.0949 369.025 71.7773 369.976 71.4597L375.049 70.1893C376 69.8717 376.951 70.1893 377.586 70.8245L384.244 77.8117C384.561 78.4469 384.561 78.4469 383.61 78.1293L369.659 72.4125Z" fill="#42E8E0"/>
<path opacity="0.8" d="M342.074 70.8245C341.123 70.8245 341.123 70.507 342.074 70.1894L352.854 66.3782C353.805 66.0606 355.074 66.0606 355.708 66.3782L361.098 69.5541C361.732 69.8717 361.415 70.1894 360.781 70.1894L342.074 70.8245Z" fill="#42E8E0"/>
<path opacity="0.8" d="M367.122 70.1894C366.171 70.507 364.902 70.1894 363.951 69.8718L359.195 67.6486C358.561 67.331 358.561 67.0134 359.512 67.331L371.244 69.2366C372.195 69.2366 372.195 69.5542 371.244 69.8718L367.122 70.1894Z" fill="#42E8E0"/>
<path opacity="0.8" d="M337.951 70.8244C336.999 71.142 336.048 71.142 335.731 70.8244C335.414 70.5068 336.048 70.1892 337.317 69.8716L343.341 68.6012C344.292 68.2836 344.292 68.6012 343.341 68.9188L337.951 70.8244Z" fill="#42E8E0"/>
<path opacity="0.8" d="M316.39 107.031C316.707 106.713 317.341 107.031 317.658 107.666L319.561 110.525C319.878 111.16 319.878 111.16 319.244 110.525L316.39 107.984C316.073 107.666 316.073 107.349 316.39 107.031Z" fill="#42E8E0"/>
<path opacity="0.8" d="M388.999 80.3525C389.633 80.0349 390.267 80.6701 390.267 81.3053L391.853 85.1165C392.17 85.7517 391.853 85.7517 391.536 85.1165L388.999 81.9405C388.365 80.9877 388.682 80.3525 388.999 80.3525Z" fill="#42E8E0"/>
<path opacity="0.8" d="M388.683 79.0821C389.317 79.3997 389.317 80.0349 389 80.0349C388.683 80.3525 388.049 80.0349 387.732 79.3997L385.829 76.5413C385.512 75.9061 385.512 75.9061 386.146 76.5413L388.683 79.0821Z" fill="#42E8E0"/>
<path opacity="0.8" d="M314.487 105.443C314.804 106.078 314.804 106.713 314.487 106.713C313.853 107.031 313.219 106.396 313.219 105.76L311.633 101.949C311.316 101.314 311.633 101.314 311.95 101.949L314.487 105.443Z" fill="#42E8E0"/>
<g opacity="0.8">
<mask id="mask0" mask-type="alpha" maskUnits="userSpaceOnUse" x="253" y="122" width="45" height="26">
<g opacity="0.8">
<g opacity="0.8">
<path opacity="0.8" d="M263.439 122.259L297.049 126.388L287.854 147.667L253.927 143.538L263.439 122.259Z" fill="white"/>
</g>
</g>
</mask>
<g mask="url(#mask0)">
<path opacity="0.8" d="M272 126.388C269.464 127.023 267.561 127.658 265.659 128.928C263.756 130.199 262.488 131.469 261.854 133.057C261.22 134.645 261.22 136.233 261.854 137.821C262.488 139.409 263.756 140.68 265.342 141.632C267.244 142.585 269.147 143.22 271.683 143.538C274.22 143.856 276.439 143.856 278.976 143.22C281.513 142.585 283.415 141.95 285.317 140.68C287.22 139.409 288.488 138.139 289.122 136.551C290.074 134.645 289.756 132.74 288.805 130.834C288.171 129.881 287.537 129.246 286.586 128.611C284.683 127.34 282.464 126.388 279.61 126.07C277.074 125.752 274.537 126.07 272 126.388ZM288.171 126.705C290.391 127.976 291.659 129.564 292.61 131.469C293.561 133.375 293.244 135.28 292.61 137.186C291.659 139.092 290.074 140.997 287.854 142.268C285.635 143.856 283.098 144.808 279.927 145.444C277.074 146.079 273.903 146.079 270.732 145.761C267.561 145.444 265.025 144.491 262.805 143.22C260.586 141.95 259.317 140.362 258.366 138.456C257.732 136.551 257.732 134.645 258.366 132.74C259.317 130.834 260.903 129.246 263.122 127.658C265.342 126.07 267.878 125.117 271.049 124.482C273.903 123.847 277.074 123.847 280.244 124.164C283.415 124.482 285.952 125.435 288.171 126.705Z" fill="#42E8E0"/>
</g>
</g>
<path opacity="0.8" d="M316.072 141.967C319.243 142.284 321.78 142.284 323.999 141.332C326.219 140.696 327.487 139.426 328.438 137.52C329.072 135.932 329.072 134.344 327.487 133.392C326.219 132.121 323.999 131.486 320.829 131.168L311.633 129.898L306.877 140.696L316.072 141.967ZM321.463 151.495L317.658 144.19C316.707 144.19 315.755 143.872 315.438 143.872L306.243 142.602L303.707 148.636C303.39 149.272 302.438 149.589 301.804 149.589H301.487C300.536 149.589 300.219 148.954 300.536 148.319L309.414 127.675L321.78 129.263C325.902 129.898 328.755 130.851 330.658 132.439C332.243 134.027 332.877 135.932 331.609 138.156C330.975 140.061 329.39 141.332 327.804 142.284C325.902 143.237 323.682 143.872 321.146 144.19L324.951 150.86C325.268 151.495 324.316 152.448 323.048 152.13C321.78 152.13 321.463 151.812 321.463 151.495Z" fill="#42E8E0"/>
<path opacity="0.8" d="M361.414 153.718C363.317 153.083 364.585 152.13 364.902 150.86C365.536 149.589 365.219 148.319 363.951 147.684C362.682 146.731 360.78 146.096 357.926 145.778L348.097 144.508L344.609 152.765L354.756 154.036C357.292 154.353 359.829 154.353 361.414 153.718ZM364.902 143.555C366.487 142.92 367.439 142.284 368.073 141.014C368.707 139.744 368.39 138.791 367.439 138.156C366.487 137.203 364.902 136.885 362.682 136.568L352.536 135.297L349.365 142.92L359.512 144.19C361.414 144.19 363.317 144.19 364.902 143.555ZM370.292 136.885C371.56 138.156 372.195 139.426 371.243 141.332C370.609 142.602 369.658 143.555 368.39 144.19C366.804 144.825 365.219 145.143 363.317 145.46C365.536 146.096 367.121 146.731 368.073 148.001C369.024 149.272 369.024 150.542 368.39 151.812C367.439 153.718 365.853 154.988 363.317 155.624C360.78 156.259 357.609 156.576 354.121 155.941L340.487 154.353L349.999 132.756L363.634 134.344C366.487 134.98 369.024 135.615 370.292 136.885Z" fill="#42E8E0"/>
<path opacity="0.8" d="M401.367 141.649C399.781 141.014 398.513 140.696 396.928 140.696C394.708 140.379 392.806 140.379 391.22 141.014C389.635 141.332 388.684 141.967 388.05 143.237C387.733 144.19 387.733 144.825 388.367 145.46C389.001 146.096 389.635 146.731 390.586 147.048C391.537 147.366 392.806 148.001 394.708 148.636C396.611 149.272 398.513 149.907 399.464 150.542C400.733 151.177 401.684 151.812 402.001 152.765C402.635 153.718 402.635 154.671 402.001 155.941C401.367 157.212 400.415 158.164 399.147 158.8C397.879 159.435 395.976 160.07 394.074 160.388C392.172 160.705 389.952 160.705 387.733 160.388C385.513 160.07 383.294 159.435 381.391 158.8C379.806 158.164 378.537 157.212 377.586 156.576C377.269 156.259 377.269 155.624 377.903 155.306C378.537 154.988 379.806 154.988 380.123 155.306C381.074 155.941 382.025 156.576 383.294 157.212C384.879 157.847 386.781 158.482 388.684 158.8C391.22 159.117 393.44 159.117 395.025 158.482C396.928 158.164 397.879 157.212 398.513 156.259C398.83 155.306 398.83 154.671 398.196 154.036C397.562 153.4 396.928 152.765 395.976 152.448C395.025 152.13 393.757 151.495 391.854 150.86C389.952 150.224 388.367 149.589 387.098 148.954C385.83 148.319 384.879 147.684 384.562 146.731C383.928 145.778 383.928 144.825 384.562 143.555C384.879 142.602 385.83 141.649 387.098 141.014C388.367 140.379 389.952 139.744 391.854 139.744C393.757 139.426 395.659 139.426 397.879 139.744C399.781 140.061 401.367 140.379 402.952 141.014C404.22 141.332 405.172 141.967 406.123 142.284C406.757 142.602 406.757 143.237 406.123 143.555C405.489 143.872 404.537 144.19 403.903 143.872C403.269 142.284 402.318 141.967 401.367 141.649Z" fill="#42E8E0"/>
</g>
</g>
</g>
<path opacity="0.3" d="M378.853 43.511L313.854 185.16C329.39 187.384 345.561 187.701 361.097 186.431L421.024 56.215C408.341 50.4982 394.073 46.0518 378.853 43.511Z" fill="#42E8E0"/>
<g opacity="0.05">
<path opacity="0.05" d="M343.341 178.809C405.331 178.809 455.584 149.801 455.584 114.018C455.584 78.2356 405.331 49.228 343.341 49.228C281.35 49.228 231.097 78.2356 231.097 114.018C231.097 149.801 281.35 178.809 343.341 178.809Z" fill="url(#paint12_linear)"/>
<g opacity="0.05">
<path opacity="0.05" d="M143.268 113.701L142 113.065L337.317 0L338.585 0.635199L143.268 113.701Z" fill="#42E8E0"/>
<path opacity="0.05" d="M146.756 115.606L145.487 114.971L340.804 1.90558L342.073 2.54078L146.756 115.606Z" fill="#42E8E0"/>
<path opacity="0.05" d="M149.927 117.512L148.976 116.877L344.293 4.12891L345.244 4.76411L149.927 117.512Z" fill="#42E8E0"/>
<path opacity="0.05" d="M153.414 119.735L152.463 118.782L347.78 6.03448L348.731 6.66968L153.414 119.735Z" fill="#42E8E0"/>
<path opacity="0.05" d="M156.902 121.641L155.634 121.005L350.951 7.93994L352.219 8.57514L156.902 121.641Z" fill="#42E8E0"/>
<path opacity="0.05" d="M160.39 123.546L159.122 122.911L354.439 9.84552L355.707 10.7983L160.39 123.546Z" fill="#42E8E0"/>
<path opacity="0.05" d="M163.878 125.452L162.609 124.817L357.926 12.0688L359.195 12.704L163.878 125.452Z" fill="#42E8E0"/>
<path opacity="0.05" d="M167.365 127.675L166.097 126.722L361.414 13.9744L362.682 14.6096L167.365 127.675Z" fill="#42E8E0"/>
<path opacity="0.05" d="M170.853 129.581L169.585 128.945L364.902 15.88L366.17 16.5152L170.853 129.581Z" fill="#42E8E0"/>
<path opacity="0.05" d="M174.024 131.486L173.073 130.851L368.39 17.7855L369.342 18.7383L174.024 131.486Z" fill="#42E8E0"/>
<path opacity="0.05" d="M177.513 133.392L176.562 132.757L371.561 20.0089L372.83 20.644L177.513 133.392Z" fill="#42E8E0"/>
<path opacity="0.05" d="M181.001 135.615L179.732 134.98L375.049 21.9144L376.318 22.5496L181.001 135.615Z" fill="#42E8E0"/>
<path opacity="0.05" d="M184.488 137.521L183.22 136.885L378.537 23.8199L379.805 24.4551L184.488 137.521Z" fill="#42E8E0"/>
<path opacity="0.05" d="M187.975 139.426L186.707 138.791L382.024 25.7255L383.292 26.6783L187.975 139.426Z" fill="#42E8E0"/>
<path opacity="0.05" d="M191.464 141.649L190.195 140.697L385.512 27.9488L386.781 28.584L191.464 141.649Z" fill="#42E8E0"/>
<path opacity="0.05" d="M194.951 143.555L193.683 142.92L389 29.8544L390.268 30.4896L194.951 143.555Z" fill="#42E8E0"/>
<path opacity="0.05" d="M198.123 145.461L197.172 144.825L392.489 31.7599L393.44 32.3951L198.123 145.461Z" fill="#42E8E0"/>
<path opacity="0.05" d="M201.61 147.366L200.342 146.731L395.659 33.9831L396.927 34.6183L201.61 147.366Z" fill="#42E8E0"/>
<path opacity="0.05" d="M205.097 149.589L203.829 148.637L399.146 35.8889L400.414 36.5241L205.097 149.589Z" fill="#42E8E0"/>
<path opacity="0.05" d="M208.585 151.495L207.316 150.86L402.633 37.7943L403.902 38.4295L208.585 151.495Z" fill="#42E8E0"/>
<path opacity="0.05" d="M212.073 153.401L210.805 152.765L406.122 39.6999L407.39 40.3351L212.073 153.401Z" fill="#42E8E0"/>
<path opacity="0.05" d="M215.56 155.306L214.292 154.671L409.609 41.923L410.877 42.5582L215.56 155.306Z" fill="#42E8E0"/>
<path opacity="0.05" d="M219.05 157.529L217.781 156.577L413.098 43.8288L414.05 44.464L219.05 157.529Z" fill="#42E8E0"/>
<path opacity="0.05" d="M222.219 159.435L221.268 158.8L416.585 45.7344L417.536 46.3696L222.219 159.435Z" fill="#42E8E0"/>
<path opacity="0.05" d="M225.708 161.341L224.439 160.705L419.757 47.64L421.025 48.5928L225.708 161.341Z" fill="#42E8E0"/>
<path opacity="0.05" d="M229.195 163.246L227.927 162.611L423.244 49.863L424.512 50.4982L229.195 163.246Z" fill="#42E8E0"/>
<path opacity="0.05" d="M232.683 165.469L231.415 164.834L426.732 51.7687L428 52.4039L232.683 165.469Z" fill="#42E8E0"/>
<path opacity="0.05" d="M236.171 167.375L234.902 166.74L430.219 53.6743L431.488 54.3095L236.171 167.375Z" fill="#42E8E0"/>
<path opacity="0.05" d="M239.659 169.28L238.391 168.645L433.708 55.5799L434.976 56.5327L239.659 169.28Z" fill="#42E8E0"/>
<path opacity="0.05" d="M242.829 171.186L241.878 170.551L437.195 57.803L438.146 58.4382L242.829 171.186Z" fill="#42E8E0"/>
<path opacity="0.05" d="M246.316 173.409L245.365 172.774L440.682 59.7088L441.634 60.344L246.316 173.409Z" fill="#42E8E0"/>
<path opacity="0.05" d="M249.804 175.315L248.536 174.68L443.853 61.6143L445.122 62.2495L249.804 175.315Z" fill="#42E8E0"/>
<path opacity="0.05" d="M253.293 177.22L252.024 176.585L447.342 63.5199L448.61 64.4727L253.293 177.22Z" fill="#42E8E0"/>
<path opacity="0.05" d="M256.78 179.444L255.512 178.491L450.829 65.743L452.097 66.3782L256.78 179.444Z" fill="#42E8E0"/>
<path opacity="0.05" d="M260.269 181.349L259.001 180.714L454.318 67.6487L455.586 68.2839L260.269 181.349Z" fill="#42E8E0"/>
<path opacity="0.05" d="M263.756 183.255L262.487 182.62L457.804 69.5543L459.073 70.1895L263.756 183.255Z" fill="#42E8E0"/>
<path opacity="0.05" d="M266.926 185.16L265.975 184.525L461.292 71.7774L462.243 72.4126L266.926 185.16Z" fill="#42E8E0"/>
<path opacity="0.05" d="M270.415 187.384L269.464 186.431L464.464 73.683L465.732 74.3182L270.415 187.384Z" fill="#42E8E0"/>
<path opacity="0.05" d="M273.902 189.289L272.634 188.654L467.951 75.5887L469.219 76.2239L273.902 189.289Z" fill="#42E8E0"/>
<path opacity="0.05" d="M277.389 191.195L276.121 190.56L471.438 77.4943L472.706 78.4471L277.389 191.195Z" fill="#42E8E0"/>
<path opacity="0.05" d="M280.879 193.1L279.61 192.465L474.927 79.7175L476.196 80.3527L280.879 193.1Z" fill="#42E8E0"/>
<path opacity="0.05" d="M284.366 195.324L283.098 194.371L478.415 81.623L479.683 82.2582L284.366 195.324Z" fill="#42E8E0"/>
<path opacity="0.05" d="M287.853 197.229L286.585 196.594L481.902 83.5287L483.17 84.1639L287.853 197.229Z" fill="#42E8E0"/>
<path opacity="0.05" d="M291.024 199.135L290.073 198.5L485.39 85.4343L486.342 86.3871L291.024 199.135Z" fill="#42E8E0"/>
<path opacity="0.05" d="M294.512 201.04L293.244 200.405L488.561 87.6574L489.829 88.2926L294.512 201.04Z" fill="#42E8E0"/>
<path opacity="0.05" d="M298 203.264L296.731 202.628L492.048 89.563L493.317 90.1982L298 203.264Z" fill="#42E8E0"/>
<path opacity="0.05" d="M301.489 205.169L300.221 204.534L495.538 91.4688L496.806 92.104L301.489 205.169Z" fill="#42E8E0"/>
<path opacity="0.05" d="M304.975 207.075L303.707 206.44L499.024 93.3743L500.292 94.3271L304.975 207.075Z" fill="#42E8E0"/>
<path opacity="0.05" d="M308.463 209.298L307.194 208.345L502.511 95.5974L503.78 96.2326L308.463 209.298Z" fill="#42E8E0"/>
<path opacity="0.05" d="M311.952 211.204L310.684 210.568L506.001 97.503L506.952 98.1382L311.952 211.204Z" fill="#42E8E0"/>
<path opacity="0.05" d="M315.122 213.109L314.171 212.474L509.488 99.4087L510.439 100.044L315.122 213.109Z" fill="#42E8E0"/>
<path opacity="0.05" d="M318.609 215.015L317.341 214.38L512.658 101.632L513.926 102.267L318.609 215.015Z" fill="#42E8E0"/>
<path opacity="0.05" d="M322.098 217.238L320.83 216.285L516.147 103.537L517.415 104.173L322.098 217.238Z" fill="#42E8E0"/>
<path opacity="0.05" d="M325.585 219.144L324.316 218.508L519.633 105.443L520.902 106.078L325.585 219.144Z" fill="#42E8E0"/>
<path opacity="0.05" d="M329.072 221.049L327.804 220.414L523.121 107.349L524.389 108.301L329.072 221.049Z" fill="#42E8E0"/>
<path opacity="0.05" d="M332.561 222.955L331.293 222.32L526.61 109.572L527.878 110.207L332.561 222.955Z" fill="#42E8E0"/>
<path opacity="0.05" d="M335.731 225.178L334.78 224.225L530.097 111.477L531.049 112.113L335.731 225.178Z" fill="#42E8E0"/>
<path opacity="0.05" d="M339.22 227.084L338.269 226.448L533.586 113.383L534.537 114.018L339.22 227.084Z" fill="#42E8E0"/>
<path opacity="0.05" d="M342.708 228.989L341.439 228.354L536.757 115.289L538.025 116.241L342.708 228.989Z" fill="#42E8E0"/>
<path opacity="0.05" d="M346.195 230.895L344.927 230.26L540.244 117.512L541.512 118.147L346.195 230.895Z" fill="#42E8E0"/>
<path opacity="0.05" d="M349.682 233.118L348.414 232.483L543.731 119.417L544.999 120.053L349.682 233.118Z" fill="#42E8E0"/>
</g>
</g>
<path opacity="0.3" d="M343.342 40.6528C314.805 40.6528 285.951 46.3696 262.488 57.4855L225.073 139.744C231.098 149.272 240.927 158.165 253.927 165.787C262.171 170.551 271.049 174.362 280.561 177.538L343.342 40.6528Z" fill="#42E8E0"/>
<path d="M264.073 72.4128C307.829 47.0048 378.853 47.0048 422.609 72.4128C443.536 84.4815 454.317 100.362 455.268 115.924C456.219 98.4559 445.439 80.9879 422.609 67.9664C378.853 42.5584 307.829 42.5584 264.073 67.9664C241.244 81.3055 230.463 98.7735 231.414 115.924C232.365 100.362 243.146 84.4815 264.073 72.4128Z" fill="url(#paint13_linear)"/>
<defs>
<linearGradient id="paint0_linear" x1="0.715366" y1="418.527" x2="179.158" y2="418.527" gradientUnits="userSpaceOnUse">
<stop stop-color="#C0BFF6"/>
<stop offset="0.2938" stop-color="#C5C4F7"/>
<stop offset="0.6399" stop-color="#D3D2F9"/>
<stop offset="1" stop-color="#E9E9FD"/>
</linearGradient>
<linearGradient id="paint1_linear" x1="7.19747" y1="415.981" x2="173.308" y2="415.981" gradientUnits="userSpaceOnUse">
<stop stop-color="#C0BFF6"/>
<stop offset="0.2938" stop-color="#C5C4F7"/>
<stop offset="0.6399" stop-color="#D3D2F9"/>
<stop offset="1" stop-color="#E9E9FD"/>
</linearGradient>
<linearGradient id="paint2_linear" x1="90.2476" y1="156.341" x2="90.2476" y2="444.668" gradientUnits="userSpaceOnUse">
<stop stop-color="#0F054C" stop-opacity="0"/>
<stop offset="0.1542" stop-color="#10084E" stop-opacity="0.1542"/>
<stop offset="0.2895" stop-color="#121355" stop-opacity="0.2895"/>
<stop offset="0.4176" stop-color="#162561" stop-opacity="0.4176"/>
<stop offset="0.5413" stop-color="#1C3F72" stop-opacity="0.5413"/>
<stop offset="0.662" stop-color="#235F87" stop-opacity="0.662"/>
<stop offset="0.7803" stop-color="#2C87A1" stop-opacity="0.7803"/>
<stop offset="0.8945" stop-color="#37B6BF" stop-opacity="0.8945"/>
<stop offset="1" stop-color="#42E8E0"/>
</linearGradient>
<linearGradient id="paint3_linear" x1="217.006" y1="238.459" x2="475.787" y2="238.459" gradientUnits="userSpaceOnUse">
<stop stop-color="#C0BFF6"/>
<stop offset="0.2938" stop-color="#C5C4F7"/>
<stop offset="0.6399" stop-color="#D3D2F9"/>
<stop offset="1" stop-color="#E9E9FD"/>
</linearGradient>
<linearGradient id="paint4_linear" x1="226.409" y1="234.768" x2="467.305" y2="234.768" gradientUnits="userSpaceOnUse">
<stop stop-color="#C0BFF6"/>
<stop offset="0.2938" stop-color="#C5C4F7"/>
<stop offset="0.6399" stop-color="#D3D2F9"/>
<stop offset="1" stop-color="#E9E9FD"/>
</linearGradient>
<linearGradient id="paint5_linear" x1="212.881" y1="78.4446" x2="348.498" y2="290.067" gradientUnits="userSpaceOnUse">
<stop stop-color="#42E8E0"/>
<stop offset="0.0157138" stop-color="#40DDDA"/>
<stop offset="0.0920726" stop-color="#3AAEC0"/>
<stop offset="0.173" stop-color="#3484A9"/>
<stop offset="0.2573" stop-color="#2F6195"/>
<stop offset="0.3458" stop-color="#2B4486"/>
<stop offset="0.44" stop-color="#282E79"/>
<stop offset="0.5425" stop-color="#261E71"/>
<stop offset="0.6594" stop-color="#24156C"/>
<stop offset="0.8226" stop-color="#24126A"/>
</linearGradient>
<linearGradient id="paint6_linear" x1="197.752" y1="136.343" x2="448.409" y2="136.343" gradientUnits="userSpaceOnUse">
<stop stop-color="#42E8E0"/>
<stop offset="0.1507" stop-color="#43E3E0"/>
<stop offset="0.3285" stop-color="#45D5DF"/>
<stop offset="0.5199" stop-color="#49BDDD"/>
<stop offset="0.7209" stop-color="#4E9CDB"/>
<stop offset="0.9274" stop-color="#5472D8"/>
<stop offset="1" stop-color="#5761D7"/>
</linearGradient>
<linearGradient id="paint7_linear" x1="197.752" y1="136.343" x2="448.409" y2="136.343" gradientUnits="userSpaceOnUse">
<stop stop-color="#42E8E0"/>
<stop offset="0.1507" stop-color="#43E3E0"/>
<stop offset="0.3285" stop-color="#45D5DF"/>
<stop offset="0.5199" stop-color="#49BDDD"/>
<stop offset="0.7209" stop-color="#4E9CDB"/>
<stop offset="0.9274" stop-color="#5472D8"/>
<stop offset="1" stop-color="#5761D7"/>
</linearGradient>
<linearGradient id="paint8_linear" x1="197.752" y1="136.343" x2="448.409" y2="136.343" gradientUnits="userSpaceOnUse">
<stop stop-color="#42E8E0"/>
<stop offset="0.1507" stop-color="#43E3E0"/>
<stop offset="0.3285" stop-color="#45D5DF"/>
<stop offset="0.5199" stop-color="#49BDDD"/>
<stop offset="0.7209" stop-color="#4E9CDB"/>
<stop offset="0.9274" stop-color="#5472D8"/>
<stop offset="1" stop-color="#5761D7"/>
</linearGradient>
<linearGradient id="paint9_linear" x1="197.752" y1="130.069" x2="448.409" y2="130.069" gradientUnits="userSpaceOnUse">
<stop stop-color="#42E8E0"/>
<stop offset="0.0157138" stop-color="#40DDDA"/>
<stop offset="0.0920726" stop-color="#3AAEC0"/>
<stop offset="0.173" stop-color="#3484A9"/>
<stop offset="0.2573" stop-color="#2F6195"/>
<stop offset="0.3458" stop-color="#2B4486"/>
<stop offset="0.44" stop-color="#282E79"/>
<stop offset="0.5425" stop-color="#261E71"/>
<stop offset="0.6594" stop-color="#24156C"/>
<stop offset="0.8226" stop-color="#24126A"/>
</linearGradient>
<linearGradient id="paint10_linear" x1="217.785" y1="136.711" x2="469.161" y2="136.711" gradientUnits="userSpaceOnUse">
<stop stop-color="#42E8E0"/>
<stop offset="0.1507" stop-color="#43E3E0"/>
<stop offset="0.3285" stop-color="#45D5DF"/>
<stop offset="0.5199" stop-color="#49BDDD"/>
<stop offset="0.7209" stop-color="#4E9CDB"/>
<stop offset="0.9274" stop-color="#5472D8"/>
<stop offset="1" stop-color="#5761D7"/>
</linearGradient>
<linearGradient id="paint11_linear" x1="212.881" y1="48.0669" x2="348.497" y2="259.689" gradientUnits="userSpaceOnUse">
<stop stop-color="#42E8E0"/>
<stop offset="0.0157138" stop-color="#40DDDA"/>
<stop offset="0.0920726" stop-color="#3AAEC0"/>
<stop offset="0.173" stop-color="#3484A9"/>
<stop offset="0.2573" stop-color="#2F6195"/>
<stop offset="0.3458" stop-color="#2B4486"/>
<stop offset="0.44" stop-color="#282E79"/>
<stop offset="0.5425" stop-color="#261E71"/>
<stop offset="0.6594" stop-color="#24156C"/>
<stop offset="0.8226" stop-color="#24126A"/>
</linearGradient>
<linearGradient id="paint12_linear" x1="323.687" y1="14.998" x2="386.517" y2="328.484" gradientUnits="userSpaceOnUse">
<stop stop-color="#42E8E0"/>
<stop offset="0.0157138" stop-color="#40DDDA"/>
<stop offset="0.0920726" stop-color="#3AAEC0"/>
<stop offset="0.173" stop-color="#3484A9"/>
<stop offset="0.2573" stop-color="#2F6195"/>
<stop offset="0.3458" stop-color="#2B4486"/>
<stop offset="0.44" stop-color="#282E79"/>
<stop offset="0.5425" stop-color="#261E71"/>
<stop offset="0.6594" stop-color="#24156C"/>
<stop offset="0.8226" stop-color="#24126A"/>
</linearGradient>
<linearGradient id="paint13_linear" x1="231.351" y1="82.5937" x2="455.544" y2="82.5937" gradientUnits="userSpaceOnUse">
<stop stop-color="#2B237C"/>
<stop offset="1" stop-color="#180D5B"/>
</linearGradient>
<clipPath id="clip0">
<rect width="183" height="443" fill="white" transform="translate(0 136)"/>
</clipPath>
</defs>
</svg>
