<svg width="64" height="64" viewBox="0 0 64 64" fill="none" xmlns="http://www.w3.org/2000/svg">
<path d="M32 0C25.671 0 19.4841 1.87677 14.2218 5.39297C8.95939 8.90918 4.85787 13.9069 2.43587 19.7541C0.0138652 25.6014 -0.619842 32.0355 0.614885 38.2429C1.84961 44.4503 4.89732 50.1521 9.37259 54.6274C13.8479 59.1027 19.5497 62.1504 25.7571 63.3851C31.9645 64.6198 38.3986 63.9861 44.2459 61.5641C50.0931 59.1421 55.0908 55.0406 58.607 49.7782C62.1232 44.5159 64 38.329 64 32C64 27.7977 63.1723 23.6365 61.5641 19.7541C59.956 15.8717 57.5989 12.3441 54.6274 9.37258C51.6559 6.40111 48.1283 4.044 44.2459 2.43585C40.3635 0.827704 36.2023 0 32 0ZM43.572 42.4616L35.339 50.8038C34.912 51.238 34.4029 51.5828 33.8413 51.8182C33.2797 52.0536 32.6768 52.1748 32.0679 52.1748C31.459 52.1748 30.8561 52.0536 30.2945 51.8182C29.7329 51.5828 29.2238 51.238 28.7968 50.8038L20.5425 42.4723C19.6743 41.5889 19.1878 40.3999 19.1878 39.1613C19.1878 37.9226 19.6743 36.7336 20.5425 35.8502C20.8082 35.58 21.125 35.3653 21.4745 35.2188C21.824 35.0722 22.1992 34.9968 22.5781 34.9968C22.9571 34.9968 23.3323 35.0722 23.6818 35.2188C24.0313 35.3653 24.3481 35.58 24.6138 35.8502L28.7835 40.0652C29.2105 40.4994 29.7196 40.8442 30.2812 41.0796C30.8428 41.315 31.4456 41.4362 32.0546 41.4362C32.6635 41.4362 33.2664 41.315 33.828 41.0796C34.3896 40.8442 34.8987 40.4994 35.3257 40.0652L39.4901 35.8449C39.7558 35.5746 40.0726 35.36 40.4221 35.2134C40.7716 35.0669 41.1468 34.9915 41.5257 34.9915C41.9047 34.9915 42.2799 35.0669 42.6294 35.2134C42.9789 35.36 43.2957 35.5746 43.5613 35.8449C44.4286 36.7265 44.9155 37.9131 44.9174 39.1498C44.9194 40.3864 44.4364 41.5746 43.572 42.459V42.4616ZM52.231 29.1243C51.9777 29.3872 51.6745 29.5971 51.3393 29.7416C51.004 29.8861 50.6434 29.9625 50.2783 29.9662C49.9132 29.9699 49.5511 29.9009 49.213 29.7633C48.8748 29.6256 48.5675 29.4219 48.3089 29.1642L44.3282 25.1383C43.9122 24.7239 43.4178 24.3965 42.8739 24.1752C42.33 23.9538 41.7475 23.843 41.1603 23.8492C40.5731 23.8554 39.9931 23.9785 39.454 24.2113C38.9149 24.444 38.4275 24.7818 38.0203 25.2049L33.9677 29.3107C33.6719 29.6128 33.3114 29.8438 32.9134 29.9864C32.5154 30.1289 32.0901 30.1792 31.6698 30.1335C31.0269 30.0793 30.425 29.7958 29.9737 29.3347L25.9957 25.3194C25.5797 24.9049 25.0853 24.5775 24.5414 24.3562C23.9975 24.1349 23.415 24.0241 22.8278 24.0303C22.2406 24.0365 21.6606 24.1596 21.1215 24.3923C20.5824 24.6251 20.095 24.9628 19.6878 25.3859L15.6352 29.4918C15.3819 29.7547 15.0788 29.9645 14.7435 30.1091C14.4083 30.2536 14.0476 30.33 13.6825 30.3337C13.3175 30.3374 12.9553 30.2684 12.6172 30.1307C12.2791 29.993 11.9717 29.7894 11.7131 29.5317C10.8818 28.6722 10.422 27.5202 10.4329 26.3245C10.4439 25.1288 10.9248 23.9854 11.7717 23.1413L19.7783 15.0308C20.1852 14.6069 20.6725 14.2684 21.2116 14.035C21.7508 13.8015 22.331 13.6778 22.9185 13.6711C23.506 13.6644 24.089 13.7749 24.6333 13.996C25.1776 14.2171 25.6725 14.5444 26.0889 14.9589L32.0533 20.9952L38.1188 14.8497C38.526 14.4266 39.0134 14.0889 39.5525 13.8561C40.0916 13.6234 40.6716 13.5003 41.2588 13.4941C41.846 13.4879 42.4285 13.5987 42.9724 13.82C43.5163 14.0413 44.0107 14.3688 44.4267 14.7832L52.2896 22.7366C53.1193 23.5958 53.5781 24.7467 53.5671 25.9411C53.5562 27.1355 53.0763 28.2778 52.231 29.1216V29.1243Z" fill="white"/>
</svg>
