<svg width="670" height="739" viewBox="0 0 670 739" fill="none" xmlns="http://www.w3.org/2000/svg">
<path opacity="0.4" d="M358.474 697.255C315.819 697.255 273.164 687.896 240.772 669.153C209.207 650.937 191.819 626.649 191.819 600.805C191.819 574.962 209.207 550.623 240.772 532.457C305.657 494.996 411.391 494.996 476.176 532.457C507.741 550.698 525.129 574.962 525.129 600.805C525.129 626.649 507.741 650.987 476.176 669.153C443.733 687.896 401.104 697.255 358.474 697.255ZM358.474 505.71C316.095 505.71 273.717 515.019 241.449 533.637C210.311 551.602 193.174 575.463 193.174 600.805C193.174 626.147 210.311 650.009 241.449 667.974C305.984 705.234 410.965 705.234 475.499 667.974C506.612 650.009 523.774 626.147 523.774 600.805C523.774 575.463 506.612 551.627 475.499 533.637C443.232 515.019 400.853 505.71 358.474 505.71Z" fill="#42E8E0"/>
<path opacity="0.2" d="M358.474 723.099C304.378 723.099 250.306 711.206 209.107 687.42C169.087 664.336 147.057 633.549 147.057 600.805C147.057 568.061 169.087 537.3 209.107 514.191C291.456 466.643 425.467 466.643 507.816 514.191C547.836 537.3 569.891 568.061 569.891 600.805C569.891 633.549 547.761 664.26 507.816 687.445C466.641 711.206 412.545 723.099 358.474 723.099ZM358.474 479.866C304.628 479.866 250.783 491.709 209.784 515.37C170.216 538.228 148.412 568.563 148.412 600.805C148.412 633.047 170.216 663.533 209.809 686.265C291.782 733.587 425.166 733.587 507.138 686.265C546.732 663.407 568.536 633.047 568.536 600.805C568.536 568.563 546.732 538.228 507.138 515.37C466.14 491.709 412.269 479.866 358.474 479.866Z" fill="#42E8E0"/>
<path d="M358.475 676.806C324.878 676.806 291.281 669.429 265.638 654.651C240.723 640.274 226.998 621.129 226.998 600.705C226.998 580.281 240.723 561.136 265.613 546.759C316.774 517.227 400.001 517.227 451.161 546.759C476.052 561.136 489.777 580.306 489.777 600.705C489.777 621.104 476.077 640.274 451.161 654.651C425.669 669.53 392.198 676.806 358.475 676.806ZM358.475 525.959C325.104 525.959 291.758 533.285 266.391 547.938C241.902 562.065 228.428 580.808 228.428 600.63C228.428 620.452 241.927 639.27 266.391 653.321C317.15 682.627 399.775 682.627 450.559 653.321C475.023 639.195 488.497 620.452 488.497 600.63C488.497 580.808 475.023 561.989 450.559 547.938C425.167 533.386 391.821 526.059 358.475 526.059V525.959Z" fill="#42E8E0"/>
<path d="M504.878 417.375L504.201 418.549L508.548 421.057L509.225 419.884L504.878 417.375Z" fill="#42E8E0"/>
<path d="M496.325 414.052L488.396 409.486L489.074 408.307L497.002 412.873L496.325 414.052ZM480.442 404.894L472.488 400.303L473.166 399.123L481.12 403.715L480.442 404.894ZM464.585 395.786L456.631 391.195L457.308 390.015L465.262 394.607L464.585 395.786ZM448.702 386.603L440.748 382.036L441.426 380.857L449.38 385.424L448.702 386.603ZM432.819 377.445L424.815 372.803L425.518 371.623L433.447 376.215L432.819 377.445Z" fill="#42E8E0"/>
<path d="M413.271 364.552L412.594 365.725L416.939 368.235L417.617 367.062L413.271 364.552Z" fill="#42E8E0"/>
<g opacity="0.3">
<path opacity="0.3" d="M669.404 542.669V525.106L664.536 522.396C663.181 530.701 653.421 536.146 645.266 537.3L589.689 569.793L565.326 578.55L487.92 538.605L489.727 537.576C483.103 534.465 479.54 527.539 475.952 520.966L470.733 524.052L467.646 524.93V542.945C467.646 546.408 469.93 549.845 474.471 552.455L552.003 597.242C557.108 599.828 562.751 601.176 568.475 601.176C574.198 601.176 579.841 599.828 584.947 597.242L662.504 552.455C666.97 549.946 669.228 546.508 669.303 543.121V542.669H669.404Z" fill="url(#paint0_linear)"/>
<path opacity="0.3" d="M645.264 537.3L589.688 569.793L568.586 577.32V601.056C574.316 601.167 579.979 599.82 585.046 597.142L662.602 552.355C667.068 549.845 669.326 546.408 669.402 543.021V542.569V525.005L664.961 522.496H664.509C662.979 530.801 653.344 536.296 645.264 537.3Z" fill="#0F054C"/>
<path opacity="0.3" d="M552.102 579.378L474.571 534.615C465.488 529.371 465.488 520.84 474.571 515.596L552.102 470.809C557.208 468.223 562.851 466.875 568.575 466.875C574.298 466.875 579.941 468.223 585.047 470.809L662.603 515.596C671.686 520.84 671.686 529.371 662.603 534.615L585.047 579.378C579.941 581.964 574.298 583.311 568.575 583.311C562.851 583.311 557.208 581.964 552.102 579.378Z" fill="url(#paint1_linear)"/>
<g opacity="0.3">
<path opacity="0.3" d="M552.102 579.378L474.571 534.615C465.488 529.371 465.488 520.84 474.571 515.596L552.102 470.809C557.208 468.223 562.851 466.875 568.575 466.875C574.298 466.875 579.941 468.223 585.047 470.809L662.603 515.596C671.686 520.84 671.686 529.371 662.603 534.615L585.047 579.378C579.941 581.964 574.298 583.311 568.575 583.311C562.851 583.311 557.208 581.964 552.102 579.378Z" fill="#0F054C"/>
</g>
</g>
<path d="M568.587 522.797C563.495 522.891 558.462 521.691 553.959 519.31L476.403 474.522C472.388 472.189 470.155 469.052 470.155 465.69C470.155 462.328 472.388 459.191 476.403 456.858L553.959 412.095C558.488 409.795 563.496 408.596 568.575 408.596C573.654 408.596 578.662 409.795 583.19 412.095L660.672 456.858C664.686 459.191 666.919 462.328 666.919 465.69C666.763 467.586 666.101 469.406 665.002 470.959C663.903 472.513 662.408 473.743 660.672 474.522L583.115 519.31C578.643 521.674 573.646 522.874 568.587 522.797ZM568.587 409.887C563.728 409.785 558.924 410.934 554.637 413.225L477.08 457.987C475.468 458.516 474.064 459.541 473.069 460.915C472.073 462.289 471.537 463.943 471.537 465.64C471.537 467.337 472.073 468.99 473.069 470.364C474.064 471.739 475.468 472.764 477.08 473.293L554.637 518.08C558.957 520.269 563.732 521.41 568.575 521.41C573.418 521.41 578.193 520.269 582.513 518.08L660.069 473.293C661.682 472.764 663.086 471.739 664.081 470.364C665.077 468.99 665.612 467.337 665.612 465.64C665.612 463.943 665.077 462.289 664.081 460.915C663.086 459.541 661.682 458.516 660.069 457.987L582.513 413.35C578.241 411.036 573.445 409.861 568.587 409.938V409.887Z" fill="#42E8E0"/>
<path opacity="0.4" d="M669.404 448.478V421.956L664.536 419.246C663.181 427.552 653.421 432.996 645.266 434.151L589.69 466.769L565.326 475.4L487.92 435.455L489.727 434.427C483.103 431.315 479.54 424.265 475.952 417.816L470.833 420.877L467.747 421.756V448.754C467.747 452.216 470.03 455.654 474.572 458.263L552.103 503.051C557.209 505.637 562.852 506.984 568.576 506.984C574.299 506.984 579.942 505.637 585.048 503.051L662.604 458.263C667.07 455.754 669.329 452.316 669.404 448.929V448.478Z" fill="#42E8E0"/>
<path d="M669.404 424.892V407.328L664.536 404.618C663.181 412.923 653.421 418.393 645.266 419.522L589.69 452.015L565.326 460.772L488.021 420.877L489.827 419.849C483.203 416.762 479.64 409.812 476.052 403.238L470.833 406.35L467.747 407.203V425.243C467.747 428.681 470.03 432.118 474.572 434.753L552.103 479.515C557.209 482.101 562.852 483.449 568.576 483.449C574.299 483.449 579.942 482.101 585.048 479.515L662.604 434.753C667.07 432.244 669.329 428.781 669.404 425.394V424.942V424.892Z" fill="url(#paint2_linear)"/>
<path opacity="0.3" d="M645.265 419.522L589.688 452.015L568.587 459.543V483.304C574.32 483.419 579.987 482.063 585.047 479.365L662.603 434.602C667.069 432.093 669.327 428.63 669.403 425.243V424.792V407.228L664.962 404.719H664.51C662.98 413.024 653.344 418.368 645.265 419.522Z" fill="#0F054C"/>
<path d="M552.103 461.625L474.572 416.838C465.489 411.594 465.489 403.063 474.572 397.819L552.103 353.131C557.209 350.546 562.852 349.198 568.576 349.198C574.299 349.198 579.942 350.546 585.048 353.131L662.604 397.894C671.687 403.138 671.687 411.669 662.604 416.913L585.048 461.7C579.936 464.275 574.29 465.609 568.567 465.596C562.843 465.583 557.203 464.223 552.103 461.625Z" fill="url(#paint3_linear)"/>
<path d="M662.604 416.838L585.048 461.625C579.942 464.211 574.299 465.559 568.576 465.559C562.852 465.559 557.209 464.211 552.103 461.625L474.572 416.838C472.882 416.041 471.396 414.871 470.227 413.414C469.057 411.958 468.235 410.254 467.822 408.432C467.296 412.221 469.529 416.135 474.572 419.021L552.103 463.808C557.209 466.394 562.852 467.742 568.576 467.742C574.299 467.742 579.942 466.394 585.048 463.808L662.604 419.021C667.623 416.135 669.856 412.221 669.329 408.432C668.926 410.254 668.11 411.96 666.944 413.417C665.778 414.874 664.294 416.045 662.604 416.838Z" fill="white"/>
<path d="M211.492 422.91L210.814 421.755L306.838 366.304L307.515 367.483L211.492 422.91Z" fill="#42E8E0"/>
<g opacity="0.3">
<path opacity="0.3" d="M251.512 542.669V525.106L246.669 522.396C245.314 530.701 235.554 536.146 227.399 537.3L171.822 569.793L147.559 578.55L70.1534 538.605L71.96 537.576C65.3359 534.465 61.773 527.539 58.185 520.966L52.9911 524.052L49.8799 524.93V542.945C49.8799 546.408 52.1632 549.845 56.7047 552.455L134.236 597.242C139.342 599.828 144.985 601.176 150.708 601.176C156.432 601.176 162.075 599.828 167.181 597.242L244.737 552.455C249.203 549.946 251.461 546.508 251.537 543.121V542.669H251.512Z" fill="url(#paint4_linear)"/>
<path opacity="0.3" d="M227.374 537.3L171.797 569.793L150.695 577.32V601.056C156.425 601.167 162.089 599.82 167.155 597.142L244.711 552.355C249.178 549.845 251.436 546.408 251.511 543.021V542.569V525.005L247.07 522.496H246.669C245.088 530.801 235.453 536.296 227.374 537.3Z" fill="#0F054C"/>
<path opacity="0.3" d="M134.212 579.378L56.6804 534.615C47.5974 529.371 47.5974 520.84 56.6804 515.596L134.212 470.809C139.318 468.223 144.961 466.875 150.684 466.875C156.407 466.875 162.05 468.223 167.156 470.809L244.713 515.596C253.796 520.84 253.796 529.371 244.713 534.615L167.156 579.378C162.05 581.964 156.407 583.311 150.684 583.311C144.961 583.311 139.318 581.964 134.212 579.378Z" fill="url(#paint5_linear)"/>
<g opacity="0.3">
<path opacity="0.3" d="M134.212 579.378L56.6804 534.615C47.5974 529.371 47.5974 520.84 56.6804 515.596L134.212 470.809C139.318 468.223 144.961 466.875 150.684 466.875C156.407 466.875 162.05 468.223 167.156 470.809L244.713 515.596C253.796 520.84 253.796 529.371 244.713 534.615L167.156 579.378C162.05 581.964 156.407 583.311 150.684 583.311C144.961 583.311 139.318 581.964 134.212 579.378Z" fill="#0F054C"/>
</g>
</g>
<path d="M150.695 522.797C145.602 522.891 140.569 521.691 136.067 519.31L58.485 474.522C54.4704 472.189 52.2373 469.052 52.2373 465.69C52.2373 462.328 54.4704 459.191 58.485 456.858L136.041 412.095C140.57 409.795 145.577 408.596 150.657 408.596C155.736 408.596 160.744 409.795 165.272 412.095L242.829 456.858C246.843 459.191 249.077 462.328 249.077 465.69C248.92 467.586 248.258 469.406 247.159 470.959C246.06 472.513 244.565 473.743 242.829 474.522L165.272 519.31C160.785 521.682 155.77 522.882 150.695 522.797ZM136.744 518.13C141.064 520.319 145.839 521.46 150.682 521.46C155.525 521.46 160.3 520.319 164.62 518.13L242.177 473.343C243.789 472.814 245.193 471.789 246.188 470.415C247.184 469.04 247.72 467.387 247.72 465.69C247.72 463.993 247.184 462.34 246.188 460.965C245.193 459.591 243.789 458.566 242.177 458.037L164.62 413.35C160.3 411.161 155.525 410.02 150.682 410.02C145.839 410.02 141.064 411.161 136.744 413.35L59.1875 458.112C57.5752 458.642 56.1712 459.666 55.1757 461.041C54.1803 462.415 53.6444 464.068 53.6444 465.765C53.6444 467.462 54.1803 469.116 55.1757 470.49C56.1712 471.864 57.5752 472.889 59.1875 473.418L136.744 518.13Z" fill="#42E8E0"/>
<path opacity="0.4" d="M251.51 448.478V421.956L246.668 419.247C245.313 427.552 235.552 432.996 227.398 434.151L171.821 466.769L147.558 475.526L70.1522 435.581L71.9587 434.552C65.3347 431.441 61.7718 424.39 58.1838 417.942L52.9648 420.877L49.8535 421.756V448.754C49.8535 452.216 52.1368 455.654 56.6783 458.263L134.21 503.051C139.316 505.637 144.959 506.984 150.682 506.984C156.405 506.984 162.048 505.637 167.154 503.051L244.711 458.263C249.177 455.754 251.435 452.316 251.51 448.929V448.478Z" fill="#42E8E0"/>
<path d="M251.51 424.892V407.328L246.668 404.618C245.313 412.923 235.552 418.393 227.398 419.522L171.821 452.015L147.558 460.772L70.1271 420.877L71.9336 419.849C65.3096 416.762 61.7467 409.812 58.1586 403.238L52.9648 406.35L49.8535 407.203V425.243C49.8535 428.681 52.1368 432.118 56.6783 434.753L134.21 479.515C139.315 482.101 144.959 483.449 150.682 483.449C156.405 483.449 162.048 482.101 167.154 479.515L244.711 434.753C249.177 432.244 251.435 428.781 251.51 425.394V424.942V424.892Z" fill="url(#paint6_linear)"/>
<path opacity="0.3" d="M227.374 419.522L171.797 452.015L150.695 459.543V483.304C156.428 483.419 162.095 482.063 167.155 479.365L244.711 434.602C249.178 432.093 251.436 428.63 251.511 425.243V424.792V407.228L247.07 404.719H246.669C245.088 413.024 235.453 418.368 227.374 419.522Z" fill="#0F054C"/>
<path d="M134.212 461.625L56.6804 416.838C47.5974 411.594 47.5974 403.063 56.6804 397.819L134.212 353.131C139.318 350.546 144.961 349.198 150.684 349.198C156.407 349.198 162.05 350.546 167.156 353.131L244.713 397.894C253.796 403.138 253.796 411.669 244.713 416.913L167.156 461.7C162.044 464.275 156.398 465.609 150.675 465.596C144.952 465.583 139.312 464.223 134.212 461.625Z" fill="url(#paint7_linear)"/>
<path d="M134.212 461.625L56.6804 416.838C47.5974 411.594 47.5974 403.063 56.6804 397.819L134.212 353.131C139.318 350.546 144.961 349.198 150.684 349.198C156.407 349.198 162.05 350.546 167.156 353.131L244.713 397.894C253.796 403.138 253.796 411.669 244.713 416.913L167.156 461.7C162.044 464.275 156.398 465.609 150.675 465.596C144.952 465.583 139.312 464.223 134.212 461.625Z" fill="#24126A"/>
<g opacity="0.51">
<path opacity="0.51" d="M134.212 461.625L56.6804 416.838C47.5974 411.594 47.5974 403.063 56.6804 397.819L134.212 353.131C139.318 350.546 144.961 349.198 150.684 349.198C156.407 349.198 162.05 350.546 167.156 353.131L244.713 397.894C253.796 403.138 253.796 411.669 244.713 416.913L167.156 461.7C162.044 464.275 156.398 465.609 150.675 465.596C144.952 465.583 139.312 464.223 134.212 461.625Z" fill="#453C9E"/>
</g>
<path d="M244.711 416.838L167.154 461.625C162.048 464.211 156.405 465.559 150.682 465.559C144.959 465.559 139.316 464.211 134.21 461.625L56.6784 416.838C54.9888 416.041 53.5028 414.871 52.3333 413.414C51.1638 411.958 50.3415 410.254 49.9289 408.432C49.402 412.221 51.6351 416.135 56.6784 419.021L134.21 463.808C139.316 466.394 144.959 467.742 150.682 467.742C156.405 467.742 162.048 466.394 167.154 463.808L244.711 419.021C249.729 416.135 251.962 412.221 251.435 408.432C251.032 410.254 250.216 411.96 249.051 413.417C247.885 414.874 246.4 416.045 244.711 416.838Z" fill="white"/>
<path d="M421.629 553.659L420.951 552.48L425.292 549.971L425.994 551.15L421.629 553.659Z" fill="#42E8E0"/>
<path d="M433.925 546.558L433.247 545.379L441.176 540.813L441.853 541.967L433.925 546.558ZM449.807 537.4L449.13 536.221L457.059 531.629L457.736 532.808L449.807 537.4ZM465.69 528.217L465.012 527.038L472.941 522.471L473.619 523.65L465.69 528.217ZM481.547 519.059L480.87 517.879L488.824 513.288L489.501 514.467L481.547 519.059ZM497.43 509.9L496.753 508.721L504.706 504.129L505.384 505.309L497.43 509.9Z" fill="#42E8E0"/>
<path d="M513.312 500.717L512.635 499.538L516.976 497.029L517.653 498.208L513.312 500.717Z" fill="#42E8E0"/>
<g opacity="0.3">
<path opacity="0.3" d="M459.291 680.118V662.554L454.448 659.844C453.068 668.15 443.308 673.619 435.153 674.749L379.652 707.242L355.414 715.998L277.907 676.053L279.714 675.025C273.09 671.938 269.527 664.863 265.939 658.414L260.745 661.526L257.634 662.379V680.419C257.634 683.857 259.917 687.294 264.459 689.904L342.015 734.691C347.116 737.277 352.755 738.624 358.475 738.624C364.194 738.624 369.833 737.277 374.934 734.691L452.416 689.929C456.882 687.42 459.14 683.957 459.215 680.57V680.118H459.291Z" fill="url(#paint8_linear)"/>
<path opacity="0.3" d="M435.152 674.749L379.65 707.241L358.549 714.769V738.53C364.281 738.636 369.946 737.281 375.009 734.591L452.414 689.929C456.881 687.42 459.139 683.957 459.214 680.57V680.118V662.554L454.773 660.045H454.321C452.891 668.25 443.231 673.619 435.152 674.749Z" fill="#0F054C"/>
<path opacity="0.3" d="M342.016 716.952L264.46 672.164C255.377 666.92 255.377 658.389 264.46 653.145L342.016 608.282C347.118 605.697 352.756 604.349 358.476 604.349C364.195 604.349 369.834 605.697 374.936 608.282L452.417 653.045C461.5 658.289 461.5 666.82 452.417 672.064L374.936 716.952C369.831 719.526 364.193 720.867 358.476 720.867C352.759 720.867 347.121 719.526 342.016 716.952Z" fill="url(#paint9_linear)"/>
<g opacity="0.3">
<path opacity="0.3" d="M342.014 716.952L264.458 672.164C255.375 666.92 255.375 658.389 264.458 653.145L342.014 608.282C347.116 605.697 352.755 604.349 358.474 604.349C364.193 604.349 369.832 605.697 374.934 608.282L452.415 653.045C461.498 658.289 461.498 666.82 452.415 672.064L374.934 716.952C369.829 719.526 364.191 720.867 358.474 720.867C352.757 720.867 347.119 719.526 342.014 716.952Z" fill="#0F054C"/>
</g>
</g>
<path d="M358.476 651.715C353.382 651.818 348.347 650.618 343.848 648.227L266.291 603.465C264.506 602.793 262.968 601.592 261.882 600.023C260.796 598.454 260.215 596.591 260.215 594.683C260.215 592.775 260.796 590.912 261.882 589.343C262.968 587.775 264.506 586.574 266.291 585.901L343.848 541.114C348.38 538.825 353.386 537.632 358.463 537.632C363.541 537.632 368.547 538.825 373.079 541.114L450.635 585.901C454.675 588.235 456.883 591.371 456.883 594.733C456.883 598.095 454.675 601.232 450.635 603.565L373.104 648.328C368.596 650.683 363.561 651.849 358.476 651.715ZM358.476 538.805C353.621 538.713 348.821 539.852 344.525 542.117L266.994 586.905C265.382 587.434 263.978 588.459 262.982 589.833C261.987 591.207 261.451 592.861 261.451 594.558C261.451 596.255 261.987 597.908 262.982 599.282C263.978 600.657 265.382 601.681 266.994 602.21L344.525 647.023C348.841 649.212 353.612 650.352 358.451 650.352C363.29 650.352 368.061 649.212 372.376 647.023L449.908 602.261C451.52 601.732 452.924 600.707 453.919 599.333C454.915 597.958 455.451 596.305 455.451 594.608C455.451 592.911 454.915 591.257 453.919 589.883C452.924 588.509 451.52 587.484 449.908 586.955L372.351 542.168C368.085 539.89 363.311 538.733 358.476 538.805Z" fill="#42E8E0"/>
<path opacity="0.4" d="M459.29 577.42V550.874L454.447 548.164C453.067 556.444 443.307 561.914 435.152 563.043L379.575 595.662L355.337 604.418L277.906 564.473L279.713 563.445C273.089 560.359 269.526 553.283 265.938 546.834L260.744 549.946L257.633 550.824V577.696C257.633 581.134 259.916 584.596 264.458 587.206L342.014 631.994C347.119 634.568 352.757 635.909 358.474 635.909C364.191 635.909 369.829 634.568 374.933 631.994L452.415 587.206C456.881 584.697 459.139 581.259 459.214 577.872V577.42H459.29Z" fill="#42E8E0"/>
<path d="M459.291 553.86V536.296L454.449 533.586C453.069 541.892 443.308 547.336 435.154 548.49L379.652 580.933L355.415 589.69L277.984 549.745L279.79 548.716C273.166 545.605 269.603 538.68 266.015 532.106L260.821 535.192L257.71 536.07V554.086C257.71 557.548 259.993 560.986 264.535 563.595L342.016 608.383C347.117 610.969 352.756 612.316 358.476 612.316C364.195 612.316 369.834 610.969 374.935 608.383L452.417 563.595C456.883 561.086 459.141 557.649 459.216 554.261V553.86H459.291Z" fill="url(#paint10_linear)"/>
<path opacity="0.3" d="M435.154 548.44L379.652 580.933L358.551 588.46V612.196C364.281 612.311 369.945 610.963 375.011 608.282L452.416 563.595C456.883 561.086 459.141 557.649 459.216 554.261V553.86V536.296L454.926 533.787H454.474C452.893 541.942 443.233 547.311 435.154 548.44Z" fill="#0F054C"/>
<path d="M342.014 590.518L264.458 545.755C255.375 540.511 255.375 531.98 264.458 526.736L342.014 481.949C347.119 479.375 352.757 478.034 358.474 478.034C364.191 478.034 369.829 479.375 374.934 481.949L452.415 526.736C461.498 531.98 461.498 540.511 452.415 545.755L374.858 590.518C369.767 593.091 364.141 594.432 358.436 594.432C352.731 594.432 347.106 593.091 342.014 590.518Z" fill="url(#paint11_linear)"/>
<path d="M358.476 582.388C353.882 582.477 349.341 581.397 345.278 579.252L284.683 544.125C283.027 543.537 281.593 542.451 280.579 541.015C279.565 539.58 279.021 537.866 279.021 536.108C279.021 534.35 279.565 532.636 280.579 531.201C281.593 529.765 283.027 528.679 284.683 528.091L345.278 493.114C349.371 491.048 353.891 489.971 358.476 489.971C363.061 489.971 367.581 491.048 371.674 493.114L432.344 528.217C434 528.804 435.434 529.89 436.448 531.326C437.462 532.762 438.007 534.476 438.007 536.233C438.007 537.991 437.462 539.705 436.448 541.141C435.434 542.576 434 543.663 432.344 544.25L371.749 579.377C367.652 581.492 363.084 582.528 358.476 582.388ZM345.93 578.073C349.821 580.036 354.118 581.058 358.476 581.058C362.834 581.058 367.131 580.036 371.021 578.073L431.616 543.096C433.064 542.626 434.325 541.711 435.219 540.48C436.114 539.25 436.596 537.767 436.596 536.246C436.596 534.725 436.114 533.242 435.219 532.012C434.325 530.781 433.064 529.865 431.616 529.396L371.021 494.419C367.137 492.437 362.837 491.403 358.476 491.403C354.115 491.403 349.815 492.437 345.93 494.419L285.336 529.396C283.885 529.858 282.619 530.77 281.721 531.999C280.822 533.228 280.338 534.711 280.338 536.233C280.338 537.756 280.822 539.239 281.721 540.468C282.619 541.697 283.885 542.609 285.336 543.071L345.93 578.073Z" fill="#5351AF"/>
<path d="M452.416 545.756L374.86 590.518C369.758 593.104 364.119 594.451 358.4 594.451C352.681 594.451 347.042 593.104 341.94 590.518L264.384 545.756C262.693 544.958 261.207 543.784 260.041 542.322C258.876 540.861 258.061 539.151 257.659 537.325C257.107 541.139 259.366 545.028 264.384 547.938L342.016 592.726C347.121 595.3 352.758 596.641 358.475 596.641C364.193 596.641 369.83 595.3 374.935 592.726L452.416 547.938C457.434 545.053 459.668 541.139 459.141 537.35C458.734 539.171 457.917 540.875 456.752 542.331C455.586 543.788 454.103 544.959 452.416 545.756Z" fill="white"/>
<g opacity="0.3">
<path opacity="0.3" d="M459.29 409.059V391.496L454.448 388.786C453.068 397.066 443.307 402.536 435.153 403.665L379.652 436.183L355.414 444.94L277.983 404.995L279.789 403.941C273.165 400.855 269.602 393.779 266.014 387.331L260.82 390.442L257.709 391.32V409.335C257.709 412.773 259.992 416.235 264.534 418.845L342.015 463.532C347.12 466.106 352.757 467.447 358.475 467.447C364.192 467.447 369.829 466.106 374.934 463.532L452.416 418.845C456.882 416.336 459.14 412.898 459.215 409.511V409.059H459.29Z" fill="url(#paint12_linear)"/>
<path opacity="0.3" d="M435.151 403.665L379.649 436.183L358.548 443.71V467.472C364.278 467.586 369.942 466.238 375.008 463.557L452.413 418.845C456.88 416.336 459.138 412.898 459.213 409.511V409.06V391.496L454.772 388.987H454.32C452.89 397.166 443.23 402.561 435.151 403.665Z" fill="#0F054C"/>
<path opacity="0.3" d="M342.014 445.768L264.458 401.005C255.375 395.761 255.375 387.23 264.458 381.986L342.014 337.199C347.116 334.613 352.755 333.266 358.474 333.266C364.193 333.266 369.832 334.613 374.934 337.199L452.415 381.986C461.498 387.23 461.498 395.761 452.415 401.005L374.858 445.768C369.767 448.341 364.141 449.682 358.436 449.682C352.731 449.682 347.106 448.341 342.014 445.768Z" fill="url(#paint13_linear)"/>
<g opacity="0.3">
<path opacity="0.3" d="M342.014 445.768L264.458 401.005C255.375 395.761 255.375 387.23 264.458 381.986L342.014 337.199C347.116 334.613 352.755 333.266 358.474 333.266C364.193 333.266 369.832 334.613 374.934 337.199L452.415 381.986C461.498 387.23 461.498 395.761 452.415 401.005L374.858 445.768C369.767 448.341 364.141 449.682 358.436 449.682C352.731 449.682 347.106 448.341 342.014 445.768Z" fill="#0F054C"/>
</g>
</g>
<path d="M358.476 392.123C353.382 392.226 348.347 391.026 343.848 388.635L266.291 343.848C264.506 343.175 262.968 341.975 261.882 340.406C260.796 338.837 260.215 336.974 260.215 335.066C260.215 333.158 260.796 331.295 261.882 329.726C262.968 328.157 264.506 326.957 266.291 326.284L343.848 281.522C348.378 279.227 353.385 278.031 358.463 278.031C363.542 278.031 368.549 279.227 373.079 281.522L450.635 326.284C454.675 328.618 456.883 331.754 456.883 335.116C456.732 337.014 456.072 338.836 454.972 340.39C453.873 341.945 452.375 343.174 450.635 343.948L373.104 388.736C368.596 391.091 363.561 392.257 358.476 392.123ZM358.476 279.213C353.617 279.117 348.815 280.266 344.525 282.55L266.994 327.313C265.382 327.842 263.978 328.867 262.982 330.241C261.987 331.615 261.451 333.269 261.451 334.966C261.451 336.662 261.987 338.316 262.982 339.69C263.978 341.065 265.382 342.089 266.994 342.618L344.525 387.456C348.841 389.645 353.612 390.786 358.451 390.786C363.29 390.786 368.061 389.645 372.376 387.456L449.908 342.694C451.529 342.171 452.943 341.147 453.946 339.769C454.949 338.392 455.489 336.732 455.489 335.028C455.489 333.325 454.949 331.665 453.946 330.287C452.943 328.91 451.529 327.886 449.908 327.363L372.351 282.601C368.087 280.321 363.31 279.172 358.476 279.263V279.213Z" fill="#42E8E0"/>
<path opacity="0.4" d="M459.291 317.828V291.282L454.449 288.572C453.069 296.877 443.308 302.347 435.154 303.476L379.652 335.969L355.415 344.726L277.984 304.781L279.79 303.752C273.166 300.666 269.603 293.716 266.015 287.142L260.821 290.253L257.71 291.106V318.129C257.71 321.567 259.993 325.004 264.535 327.639L342.016 372.401C347.117 374.987 352.756 376.335 358.476 376.335C364.195 376.335 369.834 374.987 374.935 372.401L452.417 327.639C456.883 325.13 459.141 321.667 459.216 318.28V317.828H459.291Z" fill="#42E8E0"/>
<path d="M459.29 294.243V276.679L454.447 273.994C453.067 282.274 443.307 287.744 435.152 288.873L379.575 321.492L355.337 330.248L277.906 290.153L279.713 289.124C273.089 286.038 269.526 279.088 265.938 272.514L260.744 275.625L257.633 276.503V294.519C257.633 297.956 259.916 301.394 264.458 304.028L342.014 348.791C347.116 351.376 352.754 352.724 358.474 352.724C364.193 352.724 369.832 351.376 374.933 348.791L452.415 304.028C456.881 301.519 459.139 298.082 459.214 294.694V294.243H459.29Z" fill="url(#paint14_linear)"/>
<path opacity="0.3" d="M435.151 288.848L379.574 321.467L358.473 328.994V352.755C364.206 352.873 369.873 351.516 374.932 348.816L452.414 304.028C456.88 301.519 459.138 298.082 459.213 294.694V294.243V276.679L454.772 274.17H454.321C452.89 282.35 443.23 287.719 435.151 288.848Z" fill="#0F054C"/>
<path d="M279.714 289.124L353.205 246.695C354.838 245.867 356.643 245.435 358.474 245.435C360.305 245.435 362.111 245.867 363.743 246.695L435.955 288.397L435.153 288.848C443.307 287.719 453.068 282.249 454.448 273.969L373.403 228.805L349.818 222.583L330.623 233.874L265.938 272.439C269.526 278.962 273.089 286.038 279.714 289.124Z" fill="url(#paint15_linear)"/>
<path opacity="0.3" d="M358.474 224.941L349.818 222.658L330.623 233.949L265.938 272.514C269.526 278.962 273.089 286.038 279.714 289.124L353.205 246.695C354.828 245.841 356.64 245.409 358.474 245.441V224.941Z" fill="#0F054C"/>
<path d="M342.014 330.951L264.458 286.163C255.375 280.919 255.375 272.388 264.458 267.144L342.014 222.382C347.116 219.796 352.755 218.449 358.474 218.449C364.193 218.449 369.832 219.796 374.934 222.382L452.415 267.169C461.498 272.388 461.498 280.919 452.415 286.163L374.858 330.951C369.767 333.524 364.141 334.865 358.436 334.865C352.731 334.865 347.106 333.524 342.014 330.951ZM363.743 228.855C362.11 228.027 360.305 227.595 358.474 227.595C356.643 227.595 354.838 228.027 353.205 228.855L275.648 273.618C275.008 273.83 274.45 274.239 274.055 274.786C273.66 275.334 273.447 275.991 273.447 276.666C273.447 277.341 273.66 277.999 274.055 278.547C274.45 279.094 275.008 279.503 275.648 279.715L353.205 324.477C354.838 325.306 356.643 325.738 358.474 325.738C360.305 325.738 362.11 325.306 363.743 324.477L441.299 279.715C441.94 279.503 442.498 279.094 442.893 278.547C443.288 277.999 443.501 277.341 443.501 276.666C443.501 275.991 443.288 275.334 442.893 274.786C442.498 274.239 441.94 273.83 441.299 273.618L363.743 228.855Z" fill="url(#paint16_linear)"/>
<path d="M441.301 273.618L363.745 228.855C362.112 228.027 360.307 227.595 358.476 227.595C356.645 227.595 354.839 228.027 353.207 228.855L275.65 273.618C273.718 274.747 273.141 276.328 273.718 277.758C274.148 276.924 274.822 276.242 275.65 275.801L353.207 231.038C354.839 230.21 356.645 229.778 358.476 229.778C360.307 229.778 362.112 230.21 363.745 231.038L441.301 275.801C442.124 276.249 442.796 276.93 443.233 277.758C443.886 276.328 443.233 274.747 441.301 273.618Z" fill="white"/>
<path d="M452.416 286.163L374.86 330.951C369.758 333.537 364.119 334.884 358.4 334.884C352.681 334.884 347.042 333.537 341.94 330.951L264.384 286.163C262.695 285.37 261.21 284.2 260.044 282.743C258.878 281.286 258.062 279.58 257.659 277.758C257.107 281.547 259.366 285.461 264.384 288.371L342.016 333.059C347.117 335.644 352.756 336.992 358.475 336.992C364.195 336.992 369.834 335.644 374.935 333.059L452.416 288.371C457.434 285.461 459.668 281.547 459.141 277.758C458.738 279.58 457.922 281.286 456.756 282.743C455.59 284.2 454.106 285.37 452.416 286.163Z" fill="white"/>
<path d="M344.195 329.671L266.739 284.909C258.86 280.367 258.86 272.965 266.739 268.424L344.295 223.636C348.721 221.396 353.612 220.229 358.572 220.229C363.533 220.229 368.423 221.396 372.849 223.636L450.406 268.424C458.259 272.965 458.259 280.367 450.406 284.909L372.849 329.671C368.414 331.939 363.504 333.122 358.522 333.122C353.541 333.122 348.63 331.939 344.195 329.671ZM365.924 227.676C363.608 226.513 361.051 225.907 358.459 225.907C355.867 225.907 353.311 226.513 350.995 227.676L273.463 272.464C269.348 274.822 269.348 278.686 273.463 281.07L351.02 325.857C353.332 327.02 355.884 327.626 358.472 327.626C361.06 327.626 363.612 327.02 365.924 325.857L443.48 281.07C447.595 278.686 447.595 274.822 443.48 272.464L365.924 227.676Z" fill="url(#paint17_linear)"/>
<path opacity="0.4" d="M363.744 228.855C362.111 228.027 360.306 227.595 358.475 227.595C356.644 227.595 354.839 228.027 353.206 228.855L275.649 273.618C275.009 273.83 274.451 274.239 274.056 274.786C273.661 275.334 273.448 275.991 273.448 276.666C273.448 277.341 273.661 277.999 274.056 278.546C274.451 279.094 275.009 279.503 275.649 279.715L353.206 324.477C354.839 325.306 356.644 325.738 358.475 325.738C360.306 325.738 362.111 325.306 363.744 324.477L441.301 279.715C441.941 279.503 442.499 279.094 442.894 278.546C443.289 277.999 443.502 277.341 443.502 276.666C443.502 275.991 443.289 275.334 442.894 274.786C442.499 274.239 441.941 273.83 441.301 273.618L363.744 228.855Z" fill="#42E8E0"/>
<path style="mix-blend-mode:lighten" opacity="0.5" d="M443.458 276.604V0H273.466V276.604C273.51 277.272 273.737 277.916 274.122 278.465C274.507 279.013 275.035 279.446 275.649 279.715L353.205 324.478C354.838 325.306 356.643 325.738 358.474 325.738C360.305 325.738 362.111 325.306 363.743 324.478L441.3 279.715C441.91 279.444 442.435 279.011 442.815 278.462C443.196 277.913 443.418 277.27 443.458 276.604Z" fill="url(#paint18_linear)"/>
<path opacity="0.5" d="M174.634 435.932L97.6549 391.471C92.1098 388.284 92.8124 382.689 99.2106 378.925C105.609 375.212 115.294 374.81 120.839 378.022L197.818 422.458C203.364 425.67 202.661 431.265 196.263 435.004C189.865 438.717 180.179 439.119 174.634 435.932Z" fill="#24126A"/>
<path d="M96.042 495.427L0 550.832L0.67704 552.006L96.719 496.601L96.042 495.427Z" fill="#42E8E0"/>
<path d="M200.752 361.938V290.203L174.131 271.535C161.394 262.53 147.855 254.719 133.684 248.201L107.062 236.132L96.3232 242.43L108.216 251.036V307.19C108.216 307.19 106.761 352.956 155.061 405.772C160.508 406.184 165.986 405.795 171.32 404.618L170.518 407.127L179.977 401.557C180.805 401.105 181.583 400.654 182.335 400.177H182.461C201.505 387.857 200.752 361.938 200.752 361.938Z" fill="#453C9E"/>
<path d="M153.834 258.588C147.143 254.708 140.452 251.245 133.761 248.201L107.139 236.132L96.4004 242.43L108.294 251.036V284.934L153.834 258.588Z" fill="#9292FF"/>
<path d="M144.574 253.52L122.143 266.467L140.61 277.131L163.066 264.184C156.894 260.294 150.746 256.706 144.574 253.52Z" fill="#504DBA"/>
<path d="M189.988 368.186V296.501L163.367 277.858C150.645 268.844 137.113 261.033 122.945 254.524L96.3233 242.455V314.165C96.3233 314.165 94.8429 359.931 143.143 412.773C191.469 415.683 189.988 368.186 189.988 368.186Z" fill="url(#paint19_linear)"/>
<path d="M181.958 300.666V368.412C181.958 368.588 182.209 385.976 171.445 396.414C165.624 402.059 157.369 404.869 146.831 404.769C103.9 356.393 104.326 314.717 104.326 314.316V254.875L119.607 261.8C133.318 268.099 146.413 275.659 158.724 284.382" fill="url(#paint20_linear)"/>
<defs>
<linearGradient id="paint0_linear" x1="487.82" y1="490.179" x2="647.8" y2="582.564" gradientUnits="userSpaceOnUse">
<stop stop-color="#BCBEFF"/>
<stop offset="0.23" stop-color="#AAADF8"/>
<stop offset="0.68" stop-color="#7C83E5"/>
<stop offset="1" stop-color="#5761D7"/>
</linearGradient>
<linearGradient id="paint1_linear" x1="467.746" y1="525.106" x2="669.403" y2="525.106" gradientUnits="userSpaceOnUse">
<stop stop-color="#E9E9FD"/>
<stop offset="0.36" stop-color="#D3D2F9"/>
<stop offset="0.71" stop-color="#C5C4F7"/>
<stop offset="1" stop-color="#C0BFF6"/>
</linearGradient>
<linearGradient id="paint2_linear" x1="91437.1" y1="13292.2" x2="96955.3" y2="21301.5" gradientUnits="userSpaceOnUse">
<stop stop-color="#BCBEFF"/>
<stop offset="0.23" stop-color="#AAADF8"/>
<stop offset="0.68" stop-color="#7C83E5"/>
<stop offset="1" stop-color="#5761D7"/>
</linearGradient>
<linearGradient id="paint3_linear" x1="89823.9" y1="20672.4" x2="106031" y2="20672.4" gradientUnits="userSpaceOnUse">
<stop stop-color="#E9E9FD"/>
<stop offset="0.36" stop-color="#D3D2F9"/>
<stop offset="0.71" stop-color="#C5C4F7"/>
<stop offset="1" stop-color="#C0BFF6"/>
</linearGradient>
<linearGradient id="paint4_linear" x1="57433.3" y1="17174.2" x2="62950.2" y2="25183.8" gradientUnits="userSpaceOnUse">
<stop stop-color="#BCBEFF"/>
<stop offset="0.23" stop-color="#AAADF8"/>
<stop offset="0.68" stop-color="#7C83E5"/>
<stop offset="1" stop-color="#5761D7"/>
</linearGradient>
<linearGradient id="paint5_linear" x1="55820.1" y1="26262.1" x2="72027.2" y2="26262.1" gradientUnits="userSpaceOnUse">
<stop stop-color="#E9E9FD"/>
<stop offset="0.36" stop-color="#D3D2F9"/>
<stop offset="0.71" stop-color="#C5C4F7"/>
<stop offset="1" stop-color="#C0BFF6"/>
</linearGradient>
<linearGradient id="paint6_linear" x1="57433.3" y1="13292.2" x2="62951.4" y2="21301.5" gradientUnits="userSpaceOnUse">
<stop stop-color="#BCBEFF"/>
<stop offset="0.23" stop-color="#AAADF8"/>
<stop offset="0.68" stop-color="#7C83E5"/>
<stop offset="1" stop-color="#5761D7"/>
</linearGradient>
<linearGradient id="paint7_linear" x1="55820.1" y1="20672.4" x2="72027.2" y2="20672.4" gradientUnits="userSpaceOnUse">
<stop stop-color="#E9E9FD"/>
<stop offset="0.36" stop-color="#D3D2F9"/>
<stop offset="0.71" stop-color="#C5C4F7"/>
<stop offset="1" stop-color="#C0BFF6"/>
</linearGradient>
<linearGradient id="paint8_linear" x1="74340.3" y1="21705.5" x2="79858.7" y2="29716.1" gradientUnits="userSpaceOnUse">
<stop stop-color="#BCBEFF"/>
<stop offset="0.23" stop-color="#AAADF8"/>
<stop offset="0.68" stop-color="#7C83E5"/>
<stop offset="1" stop-color="#5761D7"/>
</linearGradient>
<linearGradient id="paint9_linear" x1="72700" y1="32800.5" x2="88901.1" y2="32800.5" gradientUnits="userSpaceOnUse">
<stop stop-color="#E9E9FD"/>
<stop offset="0.36" stop-color="#D3D2F9"/>
<stop offset="0.71" stop-color="#C5C4F7"/>
<stop offset="1" stop-color="#C0BFF6"/>
</linearGradient>
<linearGradient id="paint10_linear" x1="74312.7" y1="17541.4" x2="79831.9" y2="25550.1" gradientUnits="userSpaceOnUse">
<stop stop-color="#BCBEFF"/>
<stop offset="0.23" stop-color="#AAADF8"/>
<stop offset="0.68" stop-color="#7C83E5"/>
<stop offset="1" stop-color="#5761D7"/>
</linearGradient>
<linearGradient id="paint11_linear" x1="72700" y1="26781.7" x2="88901.1" y2="26781.7" gradientUnits="userSpaceOnUse">
<stop stop-color="#E9E9FD"/>
<stop offset="0.36" stop-color="#D3D2F9"/>
<stop offset="0.71" stop-color="#C5C4F7"/>
<stop offset="1" stop-color="#C0BFF6"/>
</linearGradient>
<linearGradient id="paint12_linear" x1="74312.7" y1="12754.9" x2="79823.1" y2="20760.3" gradientUnits="userSpaceOnUse">
<stop stop-color="#BCBEFF"/>
<stop offset="0.23" stop-color="#AAADF8"/>
<stop offset="0.68" stop-color="#7C83E5"/>
<stop offset="1" stop-color="#5761D7"/>
</linearGradient>
<linearGradient id="paint13_linear" x1="72700" y1="19925" x2="88901.1" y2="19925" gradientUnits="userSpaceOnUse">
<stop stop-color="#E9E9FD"/>
<stop offset="0.36" stop-color="#D3D2F9"/>
<stop offset="0.71" stop-color="#C5C4F7"/>
<stop offset="1" stop-color="#C0BFF6"/>
</linearGradient>
<linearGradient id="paint14_linear" x1="74340.3" y1="8984.12" x2="79860" y2="16994.4" gradientUnits="userSpaceOnUse">
<stop stop-color="#BCBEFF"/>
<stop offset="0.23" stop-color="#AAADF8"/>
<stop offset="0.68" stop-color="#7C83E5"/>
<stop offset="1" stop-color="#5761D7"/>
</linearGradient>
<linearGradient id="paint15_linear" x1="287.316" y1="235.53" x2="429.984" y2="317.904" gradientUnits="userSpaceOnUse">
<stop offset="0.24" stop-color="#5761D7"/>
<stop offset="0.39" stop-color="#7A82E5"/>
<stop offset="0.55" stop-color="#979CF0"/>
<stop offset="0.7" stop-color="#ACAFF8"/>
<stop offset="0.85" stop-color="#B8BAFD"/>
<stop offset="1" stop-color="#BCBEFF"/>
</linearGradient>
<linearGradient id="paint16_linear" x1="72700" y1="14481.8" x2="88901.1" y2="14481.8" gradientUnits="userSpaceOnUse">
<stop stop-color="#E9E9FD"/>
<stop offset="0.36" stop-color="#D3D2F9"/>
<stop offset="0.71" stop-color="#C5C4F7"/>
<stop offset="1" stop-color="#C0BFF6"/>
</linearGradient>
<linearGradient id="paint17_linear" x1="70747.7" y1="14051.9" x2="85974.4" y2="14051.9" gradientUnits="userSpaceOnUse">
<stop stop-color="#E9E9FD"/>
<stop offset="0.36" stop-color="#D3D2F9"/>
<stop offset="0.71" stop-color="#C5C4F7"/>
<stop offset="1" stop-color="#C0BFF6"/>
</linearGradient>
<linearGradient id="paint18_linear" x1="358.474" y1="325.732" x2="358.474" y2="0" gradientUnits="userSpaceOnUse">
<stop stop-color="#42E8E0"/>
<stop offset="0.19" stop-color="#38B9C2" stop-opacity="0.79"/>
<stop offset="0.59" stop-color="#225983" stop-opacity="0.37"/>
<stop offset="0.87" stop-color="#141D5B" stop-opacity="0.1"/>
<stop offset="1" stop-color="#0F054C" stop-opacity="0"/>
</linearGradient>
<linearGradient id="paint19_linear" x1="27737.9" y1="24589" x2="31234.8" y2="24589" gradientUnits="userSpaceOnUse">
<stop stop-color="#E9E9FD"/>
<stop offset="0.36" stop-color="#D3D2F9"/>
<stop offset="0.71" stop-color="#C5C4F7"/>
<stop offset="1" stop-color="#C0BFF6"/>
</linearGradient>
<linearGradient id="paint20_linear" x1="104.326" y1="329.847" x2="181.958" y2="329.847" gradientUnits="userSpaceOnUse">
<stop stop-color="#C0BFF6"/>
<stop offset="1" stop-color="#5351AF"/>
</linearGradient>
</defs>
</svg>
