<svg width="100" height="100" viewBox="0 0 100 100" fill="none" xmlns="http://www.w3.org/2000/svg">
<path d="M86.0331 11.1425L54.8027 34.3377L60.578 20.6529L86.0331 11.1425Z" fill="#E2761B" stroke="#E2761B" stroke-linecap="round" stroke-linejoin="round"/>
<path d="M13.9355 11.1425L44.9148 34.5574L39.422 20.6529L13.9355 11.1425Z" fill="#E4761B" stroke="#E4761B" stroke-linecap="round" stroke-linejoin="round"/>
<path d="M74.7952 64.909L66.4775 77.6523L84.2741 82.5487L89.3903 65.1915L74.7952 64.909Z" fill="#E4761B" stroke="#E4761B" stroke-linecap="round" stroke-linejoin="round"/>
<path d="M10.6396 65.1915L15.7244 82.5487L33.521 77.6523L25.2034 64.909L10.6396 65.1915Z" fill="#E4761B" stroke="#E4761B" stroke-linecap="round" stroke-linejoin="round"/>
<path d="M32.5168 43.3773L27.5576 50.8788L45.2287 51.6635L44.6009 32.6742L32.5168 43.3773Z" fill="#E4761B" stroke="#E4761B" stroke-linecap="round" stroke-linejoin="round"/>
<path d="M67.4508 43.3773L55.2098 32.4545L54.8018 51.6635L72.4414 50.8789L67.4508 43.3773Z" fill="#E4761B" stroke="#E4761B" stroke-linecap="round" stroke-linejoin="round"/>
<path d="M33.5205 77.6522L44.1294 72.4733L34.9643 65.317L33.5205 77.6522Z" fill="#E4761B" stroke="#E4761B" stroke-linecap="round" stroke-linejoin="round"/>
<path d="M55.8379 72.4733L66.4782 77.6522L65.003 65.317L55.8379 72.4733Z" fill="#E4761B" stroke="#E4761B" stroke-linecap="round" stroke-linejoin="round"/>
<path d="M66.4782 77.6522L55.8379 72.4733L56.6854 79.4099L56.5912 82.3289L66.4782 77.6522Z" fill="#D7C1B3" stroke="#D7C1B3" stroke-linecap="round" stroke-linejoin="round"/>
<path d="M33.5215 77.6522L43.4085 82.3289L43.3457 79.4099L44.1304 72.4733L33.5215 77.6522Z" fill="#D7C1B3" stroke="#D7C1B3" stroke-linecap="round" stroke-linejoin="round"/>
<path d="M43.5661 60.7345L34.7148 58.1293L40.9609 55.2731L43.5661 60.7345Z" fill="#233447" stroke="#233447" stroke-linecap="round" stroke-linejoin="round"/>
<path d="M56.4033 60.7345L59.0085 55.2731L65.2859 58.1293L56.4033 60.7345Z" fill="#233447" stroke="#233447" stroke-linecap="round" stroke-linejoin="round"/>
<path d="M33.5217 77.6522L35.0283 64.909L25.2041 65.1915L33.5217 77.6522Z" fill="#CD6116" stroke="#CD6116" stroke-linecap="round" stroke-linejoin="round"/>
<path d="M64.9717 64.909L66.4783 77.6522L74.7959 65.1915L64.9717 64.909Z" fill="#CD6116" stroke="#CD6116" stroke-linecap="round" stroke-linejoin="round"/>
<path d="M72.4424 50.8788L54.8027 51.6635L56.4349 60.7345L59.04 55.2731L65.3175 58.1293L72.4424 50.8788Z" fill="#CD6116" stroke="#CD6116" stroke-linecap="round" stroke-linejoin="round"/>
<path d="M34.7139 58.1293L40.9914 55.2731L43.5651 60.7345L45.2287 51.6635L27.5576 50.8788L34.7139 58.1293Z" fill="#CD6116" stroke="#CD6116" stroke-linecap="round" stroke-linejoin="round"/>
<path d="M27.5586 50.8788L34.966 65.317L34.7149 58.1293L27.5586 50.8788Z" fill="#E4751F" stroke="#E4751F" stroke-linecap="round" stroke-linejoin="round"/>
<path d="M65.3178 58.1293L65.0039 65.317L72.4427 50.8788L65.3178 58.1293Z" fill="#E4751F" stroke="#E4751F" stroke-linecap="round" stroke-linejoin="round"/>
<path d="M45.2299 51.6635L43.5664 60.7345L45.638 71.4375L46.1088 57.3446L45.2299 51.6635Z" fill="#E4751F" stroke="#E4751F" stroke-linecap="round" stroke-linejoin="round"/>
<path d="M54.8025 51.6635L53.9551 57.3132L54.3317 71.4375L56.4347 60.7345L54.8025 51.6635Z" fill="#E4751F" stroke="#E4751F" stroke-linecap="round" stroke-linejoin="round"/>
<path d="M56.435 60.7345L54.332 71.4375L55.8386 72.4733L65.0037 65.317L65.3176 58.1293L56.435 60.7345Z" fill="#F6851B" stroke="#F6851B" stroke-linecap="round" stroke-linejoin="round"/>
<path d="M34.7148 58.1293L34.9659 65.317L44.131 72.4733L45.6376 71.4375L43.5661 60.7345L34.7148 58.1293Z" fill="#F6851B" stroke="#F6851B" stroke-linecap="round" stroke-linejoin="round"/>
<path d="M56.5912 82.3289L56.6853 79.4099L55.9006 78.7194H44.0676L43.3457 79.4099L43.4085 82.3289L33.5215 77.6522L36.9741 80.4771L43.9735 85.3421H55.9948L63.0256 80.4771L66.4782 77.6522L56.5912 82.3289Z" fill="#C0AD9E" stroke="#C0AD9E" stroke-linecap="round" stroke-linejoin="round"/>
<path d="M55.8379 72.4733L54.3313 71.4375H45.637L44.1304 72.4733L43.3457 79.4099L44.0676 78.7194H55.9006L56.6853 79.4099L55.8379 72.4733Z" fill="#161616" stroke="#161616" stroke-linecap="round" stroke-linejoin="round"/>
<path d="M87.3517 35.8443L90.0196 23.0383L86.0335 11.1425L55.8389 33.553L67.4522 43.3773L83.8677 48.1795L87.5087 43.9422L85.9393 42.8123L88.4503 40.521L86.5043 39.0144L89.0153 37.0998L87.3517 35.8443Z" fill="#763D16" stroke="#763D16" stroke-linecap="round" stroke-linejoin="round"/>
<path d="M9.98145 23.0383L12.6494 35.8443L10.9545 37.0998L13.4654 39.0144L11.5508 40.521L14.0618 42.8123L12.4924 43.9422L16.102 48.1795L32.5175 43.3773L44.1309 33.553L13.9362 11.1425L9.98145 23.0383Z" fill="#763D16" stroke="#763D16" stroke-linecap="round" stroke-linejoin="round"/>
<path d="M83.8677 48.1795L67.4521 43.3773L72.4427 50.8788L65.0039 65.317L74.7968 65.1915H89.3919L83.8677 48.1795Z" fill="#F6851B" stroke="#F6851B" stroke-linecap="round" stroke-linejoin="round"/>
<path d="M32.5166 43.3773L16.101 48.1795L10.6396 65.1915H25.2034L34.9648 65.317L27.5574 50.8788L32.5166 43.3773Z" fill="#F6851B" stroke="#F6851B" stroke-linecap="round" stroke-linejoin="round"/>
<path d="M54.8026 51.6635L55.8384 33.5531L60.6093 20.6529H39.4229L44.131 33.5531L45.2295 51.6635L45.6062 57.376L45.6375 71.4376H54.3318L54.3946 57.376L54.8026 51.6635Z" fill="#F6851B" stroke="#F6851B" stroke-linecap="round" stroke-linejoin="round"/>
</svg>
