<svg width="80" height="71" viewBox="0 0 80 71" fill="none" xmlns="http://www.w3.org/2000/svg">
<path fill-rule="evenodd" clip-rule="evenodd" d="M30.6557 28.137C30.5297 28.5932 30.1239 28.7033 29.7538 28.382L22.5582 22.1358C22.1879 21.8146 22.2697 21.4085 22.7401 21.2338L32.8334 17.4807C33.3037 17.3059 33.585 17.5359 33.4588 17.9919L30.6557 28.137Z" fill="#FEFEFE"/>
<path fill-rule="evenodd" clip-rule="evenodd" d="M25.1023 33.9691C24.729 34.2792 24.3522 34.1505 24.2643 33.6828L22.3452 23.4381C22.2577 22.9707 22.4808 22.8532 22.8409 23.1775L29.5047 29.1769C29.865 29.5012 29.8542 30.0204 29.4809 30.3306L25.1023 33.9691Z" fill="#FEFEFE"/>
<path fill-rule="evenodd" clip-rule="evenodd" d="M33.2984 15.0926C33.6317 15.4761 33.5163 15.9438 33.0427 16.1315L22.9229 20.1434C22.4489 20.3311 22.2068 20.0965 22.3845 19.6221L26.5404 8.5461C26.7182 8.07165 27.1364 7.9973 27.4692 8.38082L33.2984 15.0926Z" fill="#FEFEFE"/>
<path fill-rule="evenodd" clip-rule="evenodd" d="M23.2285 32.8002C23.3227 33.2897 23.1642 33.3486 22.8766 32.931L18.8057 27.0233C18.5179 26.6059 18.5418 25.9381 18.8584 25.5397L20.6766 23.2507C20.9929 22.8521 21.3291 22.9262 21.4232 23.4159L23.2285 32.8002Z" fill="#FEFEFE"/>
<path fill-rule="evenodd" clip-rule="evenodd" d="M21.521 18.9312C21.3458 19.3997 21.0724 19.3949 20.9135 18.9206L19.594 14.9782C19.4349 14.5039 19.6096 13.8406 19.982 13.5047L24.6875 9.25929C25.0598 8.92334 25.2209 9.03216 25.0458 9.50107L21.521 18.9312Z" fill="#FEFEFE"/>
<path fill-rule="evenodd" clip-rule="evenodd" d="M20.403 19.6407C20.5411 20.0768 20.4405 20.7347 20.1794 21.1031L19.0047 22.7593C18.7438 23.1275 18.5666 23.0546 18.6114 22.5975L19.1746 16.8481C19.2192 16.3908 19.3689 16.3734 19.5067 16.8095L20.403 19.6407Z" fill="#FEFEFE"/>
<path fill-rule="evenodd" clip-rule="evenodd" d="M25.9838 6.34829C26.1458 6.51799 25.9833 6.89807 25.6221 7.19302L23.5693 8.87056C23.2081 9.16532 23.1505 9.11802 23.4413 8.76575L25.1603 6.6805C25.4508 6.32785 25.8215 6.17839 25.9838 6.34829Z" fill="#FEFEFE"/>
<path fill-rule="evenodd" clip-rule="evenodd" d="M38.2162 39.3783C37.9648 39.8064 37.5283 39.8226 37.2464 39.4138L31.7631 31.4682C31.4808 31.0598 31.6554 30.6836 32.1509 30.6328L43.1687 29.5003C43.664 29.4496 43.8637 29.7579 43.6123 30.1861L38.2162 39.3783Z" fill="#FEFEFE"/>
<path fill-rule="evenodd" clip-rule="evenodd" d="M36.139 39.207C36.4193 39.6125 36.2655 39.8144 35.7966 39.6563L25.5246 36.1906C25.0557 36.0321 24.9791 35.64 25.3544 35.319L29.7565 31.5541C30.1317 31.2332 30.6683 31.3023 30.9488 31.7075L36.139 39.207Z" fill="#FEFEFE"/>
<path fill-rule="evenodd" clip-rule="evenodd" d="M43.5494 27.5616C43.8672 27.938 43.7306 28.2879 43.2466 28.3386L32.3153 29.4899C31.8308 29.5409 31.5337 29.1888 31.6551 28.7078L34.3907 17.8473C34.5117 17.3662 34.8712 17.2804 35.1889 17.6568L43.5494 27.5616Z" fill="#FEFEFE"/>
<path fill-rule="evenodd" clip-rule="evenodd" d="M51.9193 36.3997C52.2367 36.7795 52.1069 37.1746 51.6312 37.2778L40.5265 39.688C40.0508 39.7914 39.8624 39.522 40.1075 39.0893L45.3455 29.8498C45.5903 29.4173 46.0507 29.3737 46.3679 29.7535L51.9193 36.3997Z" fill="#FEFEFE"/>
<path fill-rule="evenodd" clip-rule="evenodd" d="M33.5972 42.354C33.182 42.5993 32.5525 42.5191 32.1995 42.1754L27.199 37.3146C26.8456 36.9709 26.9216 36.8267 27.3678 36.9937L35.927 40.1953C36.3733 40.3626 36.3985 40.6998 35.9833 40.9451L33.5972 42.354Z" fill="#FEFEFE"/>
<path fill-rule="evenodd" clip-rule="evenodd" d="M46.2362 43.134C45.8649 43.4461 45.2111 43.5184 44.7834 43.2952L41.2304 41.4412C40.8027 41.218 40.837 40.9524 41.3062 40.8509L50.7511 38.8106C51.2205 38.7092 51.3012 38.8813 50.9299 39.1931L46.2362 43.134Z" fill="#FEFEFE"/>
<path fill-rule="evenodd" clip-rule="evenodd" d="M35.778 43.1554C35.2541 43.1343 35.2037 42.9377 35.6657 42.7194L37.7436 41.7364C38.2058 41.5177 38.9662 41.5105 39.434 41.72L42.4688 43.0805C42.9365 43.2902 42.8902 43.444 42.3665 43.4229L35.778 43.1554Z" fill="#FEFEFE"/>
<path fill-rule="evenodd" clip-rule="evenodd" d="M53.8964 37.9663C54.0719 38.1895 53.8348 38.595 53.3694 38.867L50.6157 40.4758C50.1501 40.7479 50.103 40.6715 50.5116 40.3054L52.8342 38.2256C53.243 37.8595 53.7209 37.743 53.8964 37.9663Z" fill="#FEFEFE"/>
<path fill-rule="evenodd" clip-rule="evenodd" d="M47.1671 26.6503C46.6972 26.8251 46.4159 26.5949 46.5417 26.1389L49.3446 15.9941C49.4704 15.5381 49.8769 15.4275 50.2469 15.7488L57.4427 21.9952C57.8128 22.3165 57.7308 22.7222 57.2609 22.897L47.1671 26.6503Z" fill="#FEFEFE"/>
<path fill-rule="evenodd" clip-rule="evenodd" d="M57.6563 20.6928C57.7437 21.1604 57.5209 21.2777 57.1608 20.9534L50.4967 14.9539C50.1366 14.6296 50.1472 14.1106 50.5204 13.8004L54.8988 10.162C55.2723 9.85167 55.6494 9.98044 55.737 10.4482L57.6563 20.6928Z" fill="#FEFEFE"/>
<path fill-rule="evenodd" clip-rule="evenodd" d="M53.4604 35.585C53.2823 36.0594 52.8644 36.1336 52.5313 35.75L46.7023 29.0383C46.369 28.6545 46.4844 28.1871 46.9584 27.9991L57.0782 23.9877C57.5519 23.7998 57.7942 24.0342 57.6159 24.5086L53.4604 35.585Z" fill="#FEFEFE"/>
<path fill-rule="evenodd" clip-rule="evenodd" d="M61.1951 17.1071C61.4827 17.5249 61.4592 18.1924 61.1427 18.5912L59.3247 20.8802C59.008 21.279 58.6721 21.2047 58.5777 20.715L56.7723 11.3307C56.6781 10.8413 56.8368 10.7824 57.1244 11.2L61.1951 17.1071Z" fill="#FEFEFE"/>
<path fill-rule="evenodd" clip-rule="evenodd" d="M60.4064 29.1524C60.5653 29.6271 60.3908 30.2902 60.0185 30.6259L55.313 34.8718C54.9409 35.2076 54.7794 35.0988 54.9545 34.6299L58.4798 25.2C58.6547 24.7313 58.9283 24.7358 59.087 25.2108L60.4064 29.1524Z" fill="#FEFEFE"/>
<path fill-rule="evenodd" clip-rule="evenodd" d="M60.8257 27.2829C60.781 27.7402 60.6314 27.7575 60.4933 27.3213L59.5971 24.4906C59.459 24.0544 59.5598 23.3963 59.8207 23.0281L60.9952 21.3718C61.2563 21.0035 61.4335 21.0762 61.3887 21.5331L60.8257 27.2829Z" fill="#FEFEFE"/>
<path fill-rule="evenodd" clip-rule="evenodd" d="M54.8395 37.4503C54.5487 37.803 54.1782 37.9525 54.0159 37.7828C53.8539 37.6131 54.0164 37.2329 54.3776 36.9378L56.4303 35.2606C56.7916 34.9657 56.8491 35.0128 56.5584 35.3653L54.8395 37.4503Z" fill="#FEFEFE"/>
<path fill-rule="evenodd" clip-rule="evenodd" d="M47.3077 12.6626C47.5898 13.0712 47.415 13.4473 46.9197 13.4982L35.9017 14.6307C35.4066 14.6815 35.2069 14.3731 35.4583 13.945L40.8552 4.75268C41.1064 4.32441 41.5427 4.3086 41.8246 4.71722L47.3077 12.6626Z" fill="#FEFEFE"/>
<path fill-rule="evenodd" clip-rule="evenodd" d="M50.2441 12.5768C49.8688 12.8978 49.3324 12.8287 49.0517 12.4234L43.8618 4.92395C43.5812 4.51869 43.7355 4.31659 44.2042 4.47462L54.476 7.94061C54.9452 8.09886 55.0216 8.49077 54.6461 8.81192L50.2441 12.5768Z" fill="#FEFEFE"/>
<path fill-rule="evenodd" clip-rule="evenodd" d="M45.6096 26.2837C45.4882 26.7649 45.1294 26.8505 44.8114 26.4741L36.4511 16.5694C36.1331 16.193 36.2694 15.8435 36.7537 15.7924L47.685 14.6411C48.1695 14.5899 48.4665 14.942 48.3452 15.4233L45.6096 26.2837Z" fill="#FEFEFE"/>
<path fill-rule="evenodd" clip-rule="evenodd" d="M34.6549 14.281C34.4096 14.7139 33.9492 14.7571 33.632 14.3773L28.0811 7.73151C27.7637 7.35176 27.8933 6.95689 28.3689 6.85369L39.4739 4.44282C39.9496 4.33963 40.1378 4.60949 39.8928 5.04214L34.6549 14.281Z" fill="#FEFEFE"/>
<path fill-rule="evenodd" clip-rule="evenodd" d="M44.0738 3.9357C43.6271 3.76866 43.6021 3.43147 44.0177 3.18595L46.4032 1.77703C46.8188 1.53173 47.4475 1.61178 47.8013 1.95524L52.8016 6.81616C53.1551 7.15961 53.0789 7.30428 52.6324 7.13748L44.0738 3.9357Z" fill="#FEFEFE"/>
<path fill-rule="evenodd" clip-rule="evenodd" d="M29.2489 5.32038C28.7795 5.42178 28.6991 5.24953 29.0703 4.93791L33.7639 0.996686C34.1352 0.685063 34.789 0.612513 35.2166 0.835677L38.7697 2.68993C39.1975 2.91267 39.1632 3.17869 38.6938 3.27987L29.2489 5.32038Z" fill="#FEFEFE"/>
<path fill-rule="evenodd" clip-rule="evenodd" d="M42.2568 2.39463C41.7946 2.61309 41.0345 2.62066 40.5669 2.41096L37.5316 1.05044C37.064 0.840744 37.1103 0.686809 37.6341 0.708117L44.2225 0.975761C44.7463 0.997069 44.7969 1.19342 44.3347 1.41168L42.2568 2.39463Z" fill="#FEFEFE"/>
<path fill-rule="evenodd" clip-rule="evenodd" d="M27.167 5.90562C26.7582 6.27139 26.2806 6.38785 26.1049 6.1649C25.9292 5.94145 26.1663 5.53611 26.6318 5.26414L29.3857 3.65521C29.8512 3.38274 29.8981 3.45988 29.4895 3.8259L27.167 5.90562Z" fill="#FEFEFE"/>
<path fill-rule="evenodd" clip-rule="evenodd" d="M24.2556 36.0582C24.4256 35.8964 24.8065 36.0586 25.1019 36.419L26.7821 38.4687C27.0776 38.8289 27.0304 38.8867 26.6771 38.5967L24.5885 36.88C24.2355 36.5902 24.0858 36.2202 24.2556 36.0582Z" fill="#FEFEFE"/>
<path fill-rule="evenodd" clip-rule="evenodd" d="M55.9281 8.19339C56.1515 8.01795 56.5577 8.25467 56.8302 8.7195L58.4418 11.4687C58.7145 11.9335 58.6377 11.9801 58.2712 11.5722L56.1874 9.25354C55.8212 8.84592 55.7045 8.36861 55.9281 8.19339Z" fill="#FEFEFE"/>
<path fill-rule="evenodd" clip-rule="evenodd" d="M55.4112 7.2508C55.7643 7.54086 55.914 7.91077 55.744 8.07277C55.574 8.23457 55.1933 8.07235 54.8978 7.71209L53.2175 5.66219C52.9221 5.30192 52.9693 5.24428 53.3225 5.53455L55.4112 7.2508Z" fill="#FEFEFE"/>
<path fill-rule="evenodd" clip-rule="evenodd" d="M22.8827 34.8775C23.2488 35.2851 23.3655 35.7624 23.1419 35.9376C22.9186 36.113 22.5123 35.8763 22.2401 35.4117L20.6278 32.6623C20.3554 32.1976 20.4326 32.1508 20.799 32.5586L22.8827 34.8775Z" fill="#FEFEFE"/>
<mask id="mask0" mask-type="alpha" maskUnits="userSpaceOnUse" x="0" y="52" width="19" height="19">
<path d="M0 52.8099H18.5587V70.3562H0V52.8099Z" fill="white"/>
</mask>
<g mask="url(#mask0)">
<path fill-rule="evenodd" clip-rule="evenodd" d="M5.54227 55.3023C4.38921 55.944 3.47416 56.816 2.79648 57.9183C2.11837 59.0206 1.77964 60.23 1.77964 61.546C1.77964 62.8623 2.11837 64.0796 2.79648 65.1985C3.47416 66.3174 4.38921 67.2015 5.54227 67.8512C6.69448 68.5014 7.9487 68.826 9.30491 68.826C10.6434 68.826 11.8852 68.5014 13.0293 67.8512C14.1731 67.2015 15.0841 66.3174 15.7622 65.1985C16.4399 64.0796 16.7791 62.8623 16.7791 61.546C16.7791 59.9383 16.2729 58.4898 15.2616 57.2009C14.7689 56.5732 14.1701 56.0255 13.4955 55.5851C12.2248 54.7549 10.8277 54.3398 9.30491 54.3398C7.9487 54.3398 6.69448 54.6607 5.54227 55.3023ZM13.9445 53.9821C15.3594 54.7636 16.4823 55.8205 17.3131 57.1531C18.1432 58.4858 18.5587 59.9506 18.5587 61.546C18.5587 63.142 18.1432 64.6146 17.3131 65.9634C16.4823 67.3125 15.3594 68.382 13.9445 69.1717C12.5291 69.9613 10.9738 70.3563 9.27947 70.3563C7.5843 70.3563 6.02899 69.9613 4.61418 69.1717C3.19894 68.382 2.07581 67.3125 1.24566 65.9634C0.414863 64.6146 0 63.142 0 61.546C0 59.9506 0.414863 58.4858 1.24566 57.1531C2.07581 55.8205 3.19894 54.7636 4.61418 53.9821C6.02899 53.2007 7.5843 52.8099 9.27947 52.8099C10.9738 52.8099 12.5291 53.2007 13.9445 53.9821Z" fill="#FEFEFE"/>
</g>
<path fill-rule="evenodd" clip-rule="evenodd" d="M31.9235 63.0863C33.6619 63.0863 35.0008 62.7035 35.94 61.9378C36.8787 61.1721 37.3484 60.0657 37.3484 58.6182C37.3484 57.2047 36.8787 56.1279 35.94 55.3871C35.0008 54.6469 33.6619 54.2764 31.9235 54.2764H26.9158V63.0863H31.9235ZM36.8875 69.9876L33.2014 64.6009C32.6448 64.6349 32.219 64.6514 31.9235 64.6514H26.9158V69.533C26.9158 69.9878 26.535 70.3562 26.0653 70.3562H25.9668C25.4971 70.3562 25.1162 69.9878 25.1162 69.533V52.7115H31.9235C34.2011 52.7115 35.9615 53.2207 37.2047 54.2386C38.4478 55.257 39.0697 56.6998 39.0697 58.5679C39.0697 60.0319 38.7045 61.2522 37.9743 62.2278C37.244 63.2044 36.2006 63.886 34.8444 64.2726L38.2942 69.0624C38.6873 69.6081 38.2839 70.3562 37.5966 70.3562C37.3114 70.3562 37.045 70.2179 36.8875 69.9876Z" fill="#FEFEFE"/>
<path fill-rule="evenodd" clip-rule="evenodd" d="M58.3576 67.8986C59.1965 67.3021 59.6158 66.4659 59.6158 65.3905C59.6158 64.3319 59.1921 63.5088 58.345 62.9202C57.4976 62.3322 56.32 62.0379 54.8122 62.0379H49.1953V68.7933H54.8122C56.3371 68.7933 57.5192 68.4952 58.3576 67.8986ZM57.7349 59.681C58.4297 59.1353 58.7771 58.3578 58.7771 57.3496C58.7771 56.3751 58.4297 55.619 57.7349 55.0809C57.0403 54.5434 56.066 54.2828 54.8122 54.2994H49.1953V60.5003H54.8122C56.066 60.5003 57.0403 60.2274 57.7349 59.681ZM59.0693 53.8836C60.0774 54.6651 60.5815 55.745 60.5815 57.1227C60.5815 58.1648 60.2894 59.0384 59.7049 59.7442C59.1202 60.4498 58.3025 60.9125 57.2524 61.1305C58.5569 61.2988 59.5735 61.7778 60.302 62.5671C61.0304 63.3574 61.3949 64.3571 61.3949 65.5669C61.3949 67.0793 60.8271 68.2558 59.6921 69.0957C58.5569 69.9364 56.9811 70.3562 54.9646 70.3562H47.4414V52.7115H54.8885C56.6679 52.7115 58.0609 53.1023 59.0693 53.8836Z" fill="#FEFEFE"/>
<path fill-rule="evenodd" clip-rule="evenodd" d="M76.3082 54.6844C75.4302 54.4447 74.6041 54.3243 73.8297 54.3243C72.5906 54.3243 71.5965 54.5602 70.8477 55.0317C70.0992 55.5033 69.7248 56.1446 69.7248 56.9551C69.7248 57.6666 69.9313 58.2456 70.3444 58.6921C70.7576 59.1389 71.2649 59.4906 71.8677 59.747C72.4699 60.0035 73.296 60.2891 74.3459 60.6032C75.5681 60.9508 76.5533 61.2942 77.3019 61.633C78.0506 61.9724 78.6871 62.4644 79.2124 63.1095C79.7373 63.7549 79.9998 64.6072 79.9998 65.6656C79.9998 66.5926 79.7286 67.4116 79.1866 68.1226C78.6446 68.8342 77.883 69.3844 76.9019 69.7729C75.9208 70.162 74.7933 70.3562 73.5199 70.3562C72.2634 70.3562 71.0371 70.1165 69.841 69.6366C68.8764 69.2498 68.0214 68.7609 67.2753 68.17C66.9665 67.9253 66.8874 67.5005 67.0835 67.1648C67.3307 66.7417 67.9126 66.6254 68.3098 66.9252C68.9394 67.4003 69.6349 67.7913 70.3961 68.0979C71.4629 68.5282 72.5129 68.7432 73.5455 68.7432C74.9223 68.7432 76.015 68.4745 76.8243 67.9364C77.6333 67.399 78.0378 66.6751 78.0378 65.765C78.0378 65.0373 77.8313 64.4417 77.4181 63.9781C77.0052 63.5153 76.4973 63.1594 75.8951 62.911C75.2923 62.663 74.4491 62.3738 73.365 62.0426C72.1427 61.6789 71.1617 61.3353 70.4219 61.0126C69.6816 60.6901 69.0538 60.2104 68.5372 59.5733C68.0208 58.9364 67.7628 58.1051 67.7628 57.0794C67.7628 56.2024 68.0208 55.4332 68.5372 54.7712C69.0538 54.1097 69.7765 53.601 70.7057 53.2449C71.6352 52.8891 72.7107 52.7115 73.9329 52.7115C74.914 52.7115 75.899 52.8522 76.8888 53.1332C77.5753 53.3286 78.2057 53.5674 78.7805 53.85C79.1914 54.0521 79.3612 54.5305 79.1518 54.9261L79.1267 54.9739C78.9167 55.3705 78.4137 55.516 78.0003 55.3156C77.468 55.0576 76.9038 54.8472 76.3082 54.6844Z" fill="#FEFEFE"/>
</svg>
