<svg width="28" height="28" viewBox="0 0 28 28" fill="none" xmlns="http://www.w3.org/2000/svg">
<path d="M27.5172 23.1724H0.48278C0.216179 23.1724 0 22.9562 0 22.6896V5.31037C0 5.04377 0.216179 4.82759 0.48278 4.82759H27.5172C27.7838 4.82759 28 5.04377 28 5.31037V22.6896C27.9999 22.9563 27.7838 23.1724 27.5172 23.1724Z" fill="#FF4B55"/>
<path d="M4.64866 7.69631L5.10891 9.07629L6.56359 9.08756C6.75194 9.08898 6.83003 9.32939 6.67849 9.44122L5.50829 10.3053L5.94705 11.6923C6.00381 11.8719 5.79939 12.0204 5.64616 11.9109L4.46272 11.0649L3.27929 11.9109C3.12605 12.0204 2.92163 11.8718 2.9784 11.6923L3.41716 10.3053L2.24695 9.44122C2.09542 9.32933 2.17351 9.08898 2.36185 9.08756L3.81654 9.07629L4.27679 7.69631C4.3364 7.51759 4.58911 7.51759 4.64866 7.69631Z" fill="#FFE15A"/>
<path d="M9.93067 8.03637L10.2607 8.48645L10.7933 8.31987C10.8623 8.29832 10.919 8.37696 10.8768 8.43553L10.5507 8.8884L10.8737 9.34346C10.9155 9.40236 10.8583 9.48061 10.7895 9.45857L10.258 9.28844L9.92498 9.73628C9.88189 9.79425 9.78974 9.76395 9.78947 9.69176L9.787 9.13368L9.25818 8.95534C9.18976 8.93221 9.19004 8.8353 9.25867 8.81266L9.78859 8.63788L9.79483 8.07984C9.79559 8.00771 9.88796 7.97813 9.93067 8.03637Z" fill="#FFE15A"/>
<path d="M7.92142 6.69488L8.47622 6.75515L8.71291 6.24978C8.74359 6.18437 8.83984 6.19558 8.8546 6.2663L8.96868 6.81252L9.52245 6.88142C9.59414 6.89034 9.61323 6.98538 9.5505 7.02131L9.06625 7.29858L9.17185 7.84655C9.18552 7.91753 9.10103 7.965 9.04749 7.91649L8.6341 7.54161L8.14564 7.81133C8.08242 7.84627 8.01105 7.78054 8.04069 7.71464L8.26945 7.20561L7.86192 6.82433C7.8092 6.77522 7.84961 6.68712 7.92142 6.69488Z" fill="#FFE15A"/>
<path d="M8.79848 12.1031L8.46844 12.5531L7.93584 12.3866C7.86688 12.365 7.81017 12.4437 7.85239 12.5022L8.17844 12.9551L7.85545 13.4101C7.81362 13.469 7.87088 13.5473 7.93967 13.5253L8.47118 13.3551L8.80417 13.803C8.84726 13.8609 8.93941 13.8306 8.93968 13.7585L8.94215 13.2004L9.47097 13.022C9.53944 12.9989 9.53911 12.902 9.47048 12.8794L8.94056 12.7046L8.93432 12.1466C8.93345 12.0745 8.84119 12.0448 8.79848 12.1031Z" fill="#FFE15A"/>
<path d="M10.8077 10.8425L10.2529 10.9027L10.0162 10.3974C9.9855 10.332 9.88925 10.3432 9.87449 10.4139L9.76035 10.9601L9.20659 11.029C9.1349 11.0379 9.11581 11.133 9.17854 11.1689L9.66279 11.4462L9.55719 11.9941C9.54352 12.0651 9.62801 12.1126 9.68155 12.0641L10.0949 11.6892L10.5834 11.9589C10.6466 11.9939 10.718 11.9281 10.6883 11.8622L10.4596 11.3532L10.8671 10.9719C10.92 10.9228 10.8796 10.8347 10.8077 10.8425Z" fill="#FFE15A"/>
</svg>
