<svg width="28" height="28" viewBox="0 0 28 28" fill="none" xmlns="http://www.w3.org/2000/svg">
<g clip-path="url(#clip0)">
<path d="M27.5171 23.1724H0.482779C0.216179 23.1724 0 22.9562 0 22.6896V5.31035C0 5.04375 0.216179 4.82758 0.482779 4.82758H27.5172C27.7838 4.82758 27.9999 5.04375 27.9999 5.31035V22.6896C27.9999 22.9562 27.7837 23.1724 27.5171 23.1724Z" fill="#41479B"/>
<path d="M27.9999 5.31035C27.9999 5.04375 27.7837 4.82758 27.5171 4.82758H25.3572L16.4137 10.6872V4.82758H11.5861V10.6872L2.6426 4.82758H0.482779C0.216179 4.82758 0 5.04375 0 5.31035V6.55892L7.67312 11.5862H0V16.4137H7.67312L0 21.441V22.6896C0 22.9562 0.216179 23.1724 0.482779 23.1724H2.64265L11.5862 17.3128V23.1724H16.4138V17.3128L25.3573 23.1724H27.5172C27.7838 23.1724 28 22.9562 28 22.6896V21.441L20.3269 16.4138H27.9999V11.5862H20.3268L27.9999 6.55892V5.31035Z" fill="#F5F5F5"/>
<path d="M27.9999 12.5517H15.4482V4.82758H12.5517V12.5517H0V15.4482H12.5517V23.1724H15.4482V15.4482H27.9999V12.5517Z" fill="#FF4B55"/>
<path d="M9.78618 16.4137L0.0136719 22.7573C0.0478514 22.9904 0.240077 23.1724 0.482725 23.1724H1.14767L11.5596 16.4138H9.78618V16.4137Z" fill="#FF4B55"/>
<path d="M18.9433 16.4137H17.1699L27.5667 23.1624C27.809 23.1365 28.0003 22.9387 28.0003 22.6895V22.2926L18.9433 16.4137Z" fill="#FF4B55"/>
<path d="M0 5.84329L8.84725 11.5862H10.6207L0.281257 4.87466C0.116101 4.95139 0 5.11627 0 5.31036V5.84329Z" fill="#FF4B55"/>
<path d="M18.1875 11.5862L27.9834 5.22735C27.9427 5.00192 27.7546 4.82764 27.5174 4.82764H26.8258L16.4141 11.5862H18.1875Z" fill="#FF4B55"/>
</g>
<defs>
<clipPath id="clip0">
<rect width="28" height="28" fill="white"/>
</clipPath>
</defs>
</svg>
