<?xml version="1.0" encoding="utf-8"?><svg xmlns="http://www.w3.org/2000/svg" xmlns:xlink="http://www.w3.org/1999/xlink"><symbol viewBox="0 0 284.929 284.929" id="angle-arrow-down" xmlns="http://www.w3.org/2000/svg"><path d="M282.082 76.511l-14.274-14.273c-1.902-1.906-4.093-2.856-6.57-2.856-2.471 0-4.661.95-6.563 2.856L142.466 174.441 30.262 62.241c-1.903-1.906-4.093-2.856-6.567-2.856-2.475 0-4.665.95-6.567 2.856L2.856 76.515C.95 78.417 0 80.607 0 83.082c0 2.473.953 4.663 2.856 6.565l133.043 133.046c1.902 1.903 4.093 2.854 6.567 2.854s4.661-.951 6.562-2.854L282.082 89.647c1.902-1.903 2.847-4.093 2.847-6.565 0-2.475-.945-4.665-2.847-6.571z"/></symbol><symbol viewBox="0 0 12 9" id="angle-down-solid" xmlns="http://www.w3.org/2000/svg"><path d="M5.362 8.211l-5.1-5.1a.896.896 0 0 1 0-1.271L1.11.992a.896.896 0 0 1 1.271 0l3.615 3.615L9.611.992a.896.896 0 0 1 1.271 0l.848.848a.896.896 0 0 1 0 1.271l-5.1 5.1a.892.892 0 0 1-1.268 0z"/></symbol><symbol viewBox="0 0 28 28" id="china" xmlns="http://www.w3.org/2000/svg"><path d="M27.517 23.172H.483A.483.483 0 0 1 0 22.69V5.31c0-.266.216-.482.483-.482h27.034c.267 0 .483.216.483.482v17.38a.483.483 0 0 1-.483.482z"/><path d="M4.649 7.696l.46 1.38 1.455.012a.196.196 0 0 1 .114.353l-1.17.864.439 1.387a.196.196 0 0 1-.3.219l-1.184-.846-1.184.846a.196.196 0 0 1-.3-.219l.438-1.387-1.17-.864a.196.196 0 0 1 .115-.353l1.455-.012.46-1.38a.196.196 0 0 1 .372 0zm5.281.34l.33.45.533-.166a.075.075 0 0 1 .084.116l-.326.452.323.455a.075.075 0 0 1-.085.116l-.531-.17-.333.447a.075.075 0 0 1-.136-.044l-.002-.558-.529-.179a.075.075 0 0 1 0-.142l.53-.175.007-.558c0-.072.093-.102.136-.044zM7.921 6.695l.555.06.237-.505a.075.075 0 0 1 .142.016l.114.547.553.068c.072.01.091.104.028.14l-.484.278.106.548a.075.075 0 0 1-.125.07l-.413-.375-.488.27a.075.075 0 0 1-.105-.097l.228-.51-.407-.38a.075.075 0 0 1 .06-.13zm.877 5.408l-.33.45-.532-.166a.075.075 0 0 0-.084.115l.326.453-.323.455a.075.075 0 0 0 .085.115l.531-.17.333.448a.075.075 0 0 0 .136-.045l.002-.558.529-.178a.075.075 0 0 0 0-.143l-.53-.174-.007-.558a.075.075 0 0 0-.136-.044zm2.01-1.261l-.555.06-.237-.505a.075.075 0 0 0-.142.017l-.114.546-.553.069a.075.075 0 0 0-.028.14l.484.277-.106.548a.075.075 0 0 0 .125.07l.413-.375.488.27a.075.075 0 0 0 .105-.097l-.228-.509.407-.381a.075.075 0 0 0-.06-.13z"/></symbol><symbol viewBox="0 0 18 18" id="close" xmlns="http://www.w3.org/2000/svg"><rect x="1.125" width="23.865" height="1.591" rx=".795" transform="rotate(45 1.125 0)"/><rect width="23.865" height="1.591" rx=".795" transform="scale(-1 1) rotate(45 -8.437 -20.37)"/></symbol><symbol viewBox="0 0 18 22" id="copy" xmlns="http://www.w3.org/2000/svg"><path d="M11.966 3.848H1.74c-.96 0-1.74.78-1.74 1.739V20.26C0 21.22.78 22 1.74 22h10.226c.96 0 1.74-.78 1.74-1.74V5.588a1.746 1.746 0 0 0-1.74-1.74zm.519 16.408a.523.523 0 0 1-.523.523H1.735a.523.523 0 0 1-.523-.523V5.586c0-.288.234-.522.523-.522h10.227c.288 0 .523.234.523.523v14.67z"/><path d="M15.877 0H5.649C4.69 0 3.91.78 3.91 1.74c0 .337.27.607.608.607.338 0 .609-.27.609-.608 0-.288.234-.523.522-.523h10.228c.288 0 .522.235.522.523v14.674a.523.523 0 0 1-.522.523.606.606 0 0 0-.609.608c0 .338.27.608.609.608.96 0 1.739-.78 1.739-1.739V1.74c0-.96-.78-1.739-1.74-1.739z"/></symbol><symbol viewBox="0 0 483.86 483.86" id="medium-size" xmlns="http://www.w3.org/2000/svg"><path d="M483.86 112.345h-26.699c-6.952 0-25.143 7.552-25.143 13.981v233.467c0 6.445 18.191 11.729 25.143 11.729h26.699v51.835H311.052v-51.835h34.57V129.615h-6.016L256.42 423.356h-64.406l-82.11-293.741h-6.219v241.906h34.555v51.835H0v-51.835h19.173c7.527 0 15.383-5.283 15.383-11.729V126.326c0-6.43-7.855-13.981-15.383-13.981H0V60.504h179.155l58.496 207.342h1.574l59.073-207.342H483.86v51.841z"/></symbol><symbol viewBox="0 0 28 28" id="russia" xmlns="http://www.w3.org/2000/svg"><path d="M28 10.943H0V5.31c0-.266.216-.482.483-.482h27.034c.267 0 .483.216.483.482v5.633zM27.517 23.172H.483A.483.483 0 0 1 0 22.69v-5.633h28v5.633a.483.483 0 0 1-.483.482z"/><path d="M28 10.943H0v6.114h28v-6.114z"/></symbol><symbol viewBox="0 0 28 28" id="south-korea" xmlns="http://www.w3.org/2000/svg"><path d="M27.517 23.172H.483A.483.483 0 0 1 0 22.69V5.31c0-.266.216-.482.483-.482h27.034c.267 0 .483.216.483.482v17.38a.483.483 0 0 1-.483.482z"/><path d="M16.68 9.982a4.829 4.829 0 0 0-6.692 1.34A2.412 2.412 0 1 0 14 14a2.412 2.412 0 1 1 4.014 2.676 4.827 4.827 0 0 0-1.335-6.693z"/><path d="M9.988 11.322A2.412 2.412 0 1 0 14.002 14a2.412 2.412 0 1 1 4.014 2.676 4.82 4.82 0 0 1-6.69 1.34 4.827 4.827 0 0 1-1.338-6.693zM19.137 8.159l.876 1.318c.074.11.044.26-.066.334l-.223.15a.241.241 0 0 1-.335-.068l-.878-1.317a.241.241 0 0 1 .067-.335l.224-.15a.241.241 0 0 1 .335.068zm1.353 2.032l.879 1.317a.241.241 0 0 1-.068.336l-.223.147a.241.241 0 0 1-.334-.067l-.88-1.316a.241.241 0 0 1 .067-.335l.223-.149a.241.241 0 0 1 .335.067zm-.414-2.659l2.232 3.351a.242.242 0 0 1-.067.335l-.224.15a.241.241 0 0 1-.335-.068L19.45 7.95a.241.241 0 0 1 .067-.335l.225-.15a.242.242 0 0 1 .335.067zm.935-.625l.879 1.32a.241.241 0 0 1-.068.335l-.223.148a.241.241 0 0 1-.334-.067l-.88-1.32a.241.241 0 0 1 .067-.334l.224-.15a.241.241 0 0 1 .335.068zm1.355 2.036l.878 1.318c.074.11.044.26-.067.335l-.223.148a.241.241 0 0 1-.335-.066l-.877-1.318a.241.241 0 0 1 .066-.335l.223-.149a.241.241 0 0 1 .335.067zM7.259 16.077l2.232 3.347a.242.242 0 0 1-.067.335l-.223.15a.241.241 0 0 1-.335-.067l-2.233-3.348a.241.241 0 0 1 .067-.334l.224-.15a.241.241 0 0 1 .335.067zm-.937.626l.876 1.315c.074.11.044.26-.066.334l-.222.15a.241.241 0 0 1-.336-.067l-.877-1.315a.241.241 0 0 1 .067-.334l.223-.15a.241.241 0 0 1 .335.067zm1.353 2.033l.877 1.318a.242.242 0 0 1-.067.335l-.223.149a.241.241 0 0 1-.335-.067l-.878-1.318a.241.241 0 0 1 .067-.334l.224-.15a.241.241 0 0 1 .335.067zM5.384 17.33l2.231 3.347c.074.11.044.26-.066.334l-.223.15a.241.241 0 0 1-.335-.068l-2.233-3.346a.241.241 0 0 1 .067-.335l.225-.15a.241.241 0 0 1 .334.067zm1.249-5.821l2.233-3.35a.241.241 0 0 1 .334-.067l.224.149c.11.074.14.224.067.335l-2.233 3.348a.241.241 0 0 1-.334.067l-.223-.147a.241.241 0 0 1-.068-.335zm-.937-.626l2.232-3.35a.241.241 0 0 1 .335-.067l.223.149c.111.074.14.224.067.334L6.321 11.3a.241.241 0 0 1-.335.067l-.223-.15a.241.241 0 0 1-.067-.334zm-.939-.623L6.99 6.908a.241.241 0 0 1 .335-.067l.223.149c.11.074.14.223.067.334l-2.232 3.355a.241.241 0 0 1-.334.067l-.225-.15a.241.241 0 0 1-.067-.334zm13.754 9.164l.878-1.314a.241.241 0 0 1 .335-.066l.222.148c.111.074.14.224.067.335l-.877 1.314a.241.241 0 0 1-.334.067l-.224-.149a.241.241 0 0 1-.067-.335zm1.354-2.026l.879-1.32a.242.242 0 0 1 .334-.068l.224.15a.242.242 0 0 1 .067.335l-.88 1.318a.241.241 0 0 1-.335.068l-.222-.148a.241.241 0 0 1-.067-.335zm-.417 2.656l.878-1.318a.241.241 0 0 1 .335-.067l.224.15c.111.074.14.223.067.334l-.878 1.318a.241.241 0 0 1-.334.067l-.225-.15a.241.241 0 0 1-.067-.334zm1.355-2.037l.879-1.314a.242.242 0 0 1 .335-.067l.224.15c.11.073.14.223.067.334l-.879 1.315a.241.241 0 0 1-.334.067l-.225-.15a.241.241 0 0 1-.067-.335zm-.417 2.659l.879-1.315a.241.241 0 0 1 .333-.067l.224.147a.241.241 0 0 1 .068.335l-.879 1.318a.241.241 0 0 1-.335.067l-.224-.15a.241.241 0 0 1-.067-.335zm1.356-2.029l.877-1.317a.242.242 0 0 1 .335-.067l.222.149c.111.074.14.223.067.334l-.878 1.316a.241.241 0 0 1-.334.067l-.222-.147a.241.241 0 0 1-.067-.335z"/></symbol><symbol viewBox="0 -31 512 512" id="telegram" xmlns="http://www.w3.org/2000/svg"><path d="M123.195 260.738l63.68 159.188 82.902-82.903L411.918 450 512 0 0 213.266zm242.5-131.629L208.98 272.051l-19.52 73.566-36.058-90.164zm0 0"/></symbol><symbol viewBox="0 0 512 512" id="twitter" xmlns="http://www.w3.org/2000/svg"><path d="M512 97.248c-19.04 8.352-39.328 13.888-60.48 16.576 21.76-12.992 38.368-33.408 46.176-58.016-20.288 12.096-42.688 20.64-66.56 25.408C411.872 60.704 384.416 48 354.464 48c-58.112 0-104.896 47.168-104.896 104.992 0 8.32.704 16.32 2.432 23.936-87.264-4.256-164.48-46.08-216.352-109.792-9.056 15.712-14.368 33.696-14.368 53.056 0 36.352 18.72 68.576 46.624 87.232-16.864-.32-33.408-5.216-47.424-12.928v1.152c0 51.008 36.384 93.376 84.096 103.136-8.544 2.336-17.856 3.456-27.52 3.456-6.72 0-13.504-.384-19.872-1.792 13.6 41.568 52.192 72.128 98.08 73.12-35.712 27.936-81.056 44.768-130.144 44.768-8.608 0-16.864-.384-25.12-1.44C46.496 446.88 101.6 464 161.024 464c193.152 0 298.752-160 298.752-298.688 0-4.64-.16-9.12-.384-13.568 20.832-14.784 38.336-33.248 52.608-54.496z"/></symbol><symbol viewBox="0 0 28 28" id="united-kingdom" xmlns="http://www.w3.org/2000/svg"><g clip-path="url(#ka)"><path d="M27.517 23.172H.483A.483.483 0 0 1 0 22.69V5.31c0-.266.216-.482.483-.482h27.034c.267 0 .483.216.483.482v17.38a.483.483 0 0 1-.483.482z"/><path d="M28 5.31a.483.483 0 0 0-.483-.482h-2.16l-8.943 5.86v-5.86h-4.828v5.86l-8.943-5.86H.483A.483.483 0 0 0 0 5.31v1.25l7.673 5.027H0v4.828h7.673L0 21.44v1.249c0 .266.216.482.483.482h2.16l8.943-5.86v5.86h4.828v-5.86l8.943 5.86h2.16A.483.483 0 0 0 28 22.69v-1.25l-7.673-5.027H28v-4.828h-7.673L28 6.56V5.31z"/><path d="M28 12.552H15.448V4.828h-2.896v7.724H0v2.896h12.552v7.724h2.896v-7.724H28v-2.896z"/><path d="M9.786 16.414L.014 22.757a.477.477 0 0 0 .469.415h.665l10.412-6.758H9.786zm9.157 0H17.17l10.397 6.748A.478.478 0 0 0 28 22.69v-.396l-9.057-5.88zM0 5.843l8.847 5.743h1.774L.28 4.875A.48.48 0 0 0 0 5.31v.533zm18.188 5.743l9.795-6.359a.476.476 0 0 0-.466-.4h-.691l-10.412 6.76h1.773z"/></g><defs><clipPath id="ka"><path d="M0 0h28v28H0z"/></clipPath></defs></symbol></svg>