<svg width="28" height="28" viewBox="0 0 28 28" fill="none" xmlns="http://www.w3.org/2000/svg">
<path d="M27.5172 23.1724H0.48278C0.216179 23.1724 0 22.9562 0 22.6896V5.31037C0 5.04377 0.216179 4.82759 0.48278 4.82759H27.5172C27.7838 4.82759 28 5.04377 28 5.31037V22.6896C27.9999 22.9563 27.7838 23.1724 27.5172 23.1724Z" fill="#F5F5F5"/>
<path d="M16.6799 9.98226C14.4616 8.50345 11.4655 9.10802 9.98758 11.3224C9.2463 12.4277 9.54762 13.9296 10.6567 14.669C11.7649 15.4084 13.262 15.1082 14.0014 13.999C14.7408 12.8899 16.2389 12.5933 17.3471 13.3289C18.4571 14.0683 18.7556 15.5702 18.0152 16.6754C19.494 14.4573 18.8962 11.4611 16.6799 9.98226Z" fill="#FF4B55"/>
<path d="M9.98796 11.3225C9.24667 12.4278 9.548 13.9296 10.6571 14.6691C11.7653 15.4085 13.2624 15.1082 14.0018 13.999C14.7412 12.8899 16.2393 12.5934 17.3475 13.3289C18.4575 14.0683 18.7561 15.5702 18.0156 16.6755C16.5387 18.8975 13.5435 19.4946 11.3252 18.0157C9.10897 16.537 8.50915 13.5408 9.98796 11.3225Z" fill="#41479B"/>
<path d="M19.1365 8.15886L20.0134 9.47694C20.0871 9.58768 20.0573 9.7372 19.9468 9.81119L19.7244 9.9601C19.6134 10.0344 19.4633 10.0045 19.3892 9.89338L18.5112 8.57564C18.4373 8.46479 18.4673 8.315 18.5781 8.241L18.8016 8.09182C18.9126 8.01772 19.0626 8.04774 19.1365 8.15886Z" fill="#464655"/>
<path d="M20.4892 10.1911L21.369 11.5084C21.4432 11.6196 21.4129 11.7701 21.3013 11.8438L21.078 11.9914C20.9672 12.0647 20.818 12.0346 20.7442 11.9241L19.8649 10.6083C19.7909 10.4975 19.8206 10.3476 19.9315 10.2735L20.1543 10.1245C20.2651 10.0504 20.4151 10.0802 20.4892 10.1911Z" fill="#464655"/>
<path d="M20.0756 7.53225L22.3084 10.8831C22.3824 10.994 22.3523 11.1439 22.2414 11.2178L22.0171 11.3673C21.9062 11.4413 21.7563 11.4113 21.6824 11.3004L19.4488 7.94974C19.3748 7.83877 19.4049 7.68882 19.5159 7.61494L19.7409 7.46515C19.8519 7.39138 20.0017 7.42135 20.0756 7.53225Z" fill="#464655"/>
<path d="M21.0112 6.90663L21.89 8.22728C21.964 8.33851 21.9336 8.48869 21.8221 8.56235L21.5987 8.71C21.4878 8.78329 21.3385 8.75315 21.2648 8.64252L20.3853 7.32362C20.3113 7.21272 20.3413 7.06282 20.4522 6.98888L20.6764 6.83948C20.7873 6.76549 20.9372 6.79551 21.0112 6.90663Z" fill="#464655"/>
<path d="M22.3663 8.94313L23.2437 10.261C23.3176 10.3718 23.2876 10.5215 23.177 10.5955L22.9542 10.7444C22.8432 10.8186 22.693 10.7887 22.6191 10.6775L21.7417 9.35963C21.6679 9.24883 21.6977 9.09921 21.8084 9.02522L22.0312 8.87625C22.1421 8.80204 22.2923 8.83195 22.3663 8.94313Z" fill="#464655"/>
<path d="M7.25861 16.0772L9.49117 19.4244C9.56511 19.5353 9.53525 19.6851 9.42434 19.7591L9.20078 19.9084C9.08987 19.9824 8.93998 19.9525 8.86593 19.8416L6.63337 16.4943C6.55943 16.3835 6.58929 16.2336 6.7002 16.1596L6.92376 16.0103C7.03466 15.9363 7.18462 15.9663 7.25861 16.0772Z" fill="#464655"/>
<path d="M6.32189 16.7033L7.19842 18.018C7.2723 18.1288 7.24249 18.2784 7.13186 18.3525L6.9095 18.5014C6.79865 18.5756 6.64859 18.5458 6.57449 18.4348L5.69693 17.1204C5.62288 17.0095 5.65274 16.8596 5.76364 16.7856L5.9871 16.6364C6.09795 16.5624 6.2479 16.5923 6.32189 16.7033Z" fill="#464655"/>
<path d="M7.67472 18.7362L8.55223 20.0543C8.62606 20.1651 8.59615 20.3148 8.48541 20.3887L8.26239 20.5378C8.15143 20.6119 8.00142 20.582 7.92738 20.471L7.04932 19.1532C6.97543 19.0424 7.0054 18.8926 7.11614 18.8186L7.33971 18.6693C7.45072 18.5951 7.60073 18.6252 7.67472 18.7362Z" fill="#464655"/>
<path d="M5.38426 17.3292L7.6154 20.6766C7.68928 20.7874 7.65936 20.9371 7.54873 21.0112L7.32577 21.1603C7.21486 21.2344 7.06486 21.2046 6.99081 21.0935L4.75836 17.7466C4.68437 17.6356 4.71439 17.4857 4.8253 17.4118L5.04962 17.2622C5.16042 17.1883 5.31032 17.2183 5.38426 17.3292Z" fill="#464655"/>
<path d="M6.63329 11.5086L8.86551 8.1586C8.9395 8.04758 9.08945 8.01762 9.20041 8.09166L9.42392 8.2409C9.53477 8.3149 9.56463 8.46474 9.49075 8.57559L7.25765 11.9237C7.18382 12.0343 7.03447 12.0644 6.92362 11.991L6.70099 11.8437C6.58954 11.7699 6.55924 11.6197 6.63329 11.5086Z" fill="#464655"/>
<path d="M5.69581 10.8833L7.92842 7.53269C8.00241 7.42167 8.15247 7.3917 8.26343 7.46586L8.48639 7.61494C8.59708 7.68893 8.62694 7.83855 8.55311 7.9494L6.32111 11.3002C6.24712 11.4112 6.09716 11.4413 5.9862 11.3671L5.76264 11.2179C5.65185 11.144 5.62193 10.9942 5.69581 10.8833Z" fill="#464655"/>
<path d="M4.75724 10.2607L6.99008 6.90674C7.06407 6.79567 7.21419 6.76565 7.32515 6.8398L7.54811 6.98888C7.6588 7.06287 7.68865 7.21239 7.61494 7.32324L5.38346 10.6777C5.30958 10.7888 5.15957 10.8188 5.04861 10.7449L4.82428 10.5953C4.71343 10.5214 4.68346 10.3716 4.75724 10.2607Z" fill="#464655"/>
<path d="M18.5114 19.4244L19.389 18.11C19.4631 17.999 19.6131 17.9692 19.724 18.0435L19.9463 18.1924C20.057 18.2664 20.0867 18.416 20.0129 18.5268L19.1364 19.8415C19.0624 19.9525 18.9124 19.9824 18.8015 19.9084L18.578 19.7592C18.4672 19.6852 18.4373 19.5353 18.5114 19.4244Z" fill="#464655"/>
<path d="M19.8647 17.3984L20.7436 16.0775C20.8176 15.9664 20.9675 15.9364 21.0785 16.0103L21.3025 16.1596C21.4135 16.2336 21.4434 16.3836 21.3694 16.4946L20.4885 17.8134C20.4146 17.924 20.2653 17.954 20.1544 17.8805L19.9323 17.7333C19.821 17.6595 19.7907 17.5094 19.8647 17.3984Z" fill="#464655"/>
<path d="M19.4478 20.0538L20.3259 18.736C20.3998 18.625 20.5497 18.595 20.6607 18.669L20.8851 18.8186C20.996 18.8926 21.0259 19.0423 20.9521 19.1533L20.0745 20.4712C20.0006 20.5822 19.8509 20.6123 19.7398 20.5384L19.5148 20.3886C19.4039 20.3147 19.3738 20.1648 19.4478 20.0538Z" fill="#464655"/>
<path d="M20.8034 18.0175L21.682 16.7027C21.7561 16.592 21.9058 16.5621 22.0167 16.636L22.241 16.7855C22.3519 16.8595 22.3819 17.0095 22.3078 17.1204L21.4292 18.4353C21.3552 18.546 21.2054 18.5759 21.0946 18.502L20.8703 18.3525C20.7592 18.2786 20.7293 18.1285 20.8034 18.0175Z" fill="#464655"/>
<path d="M20.3855 20.6763L21.2646 19.3608C21.3384 19.2503 21.4875 19.2203 21.5983 19.2935L21.8218 19.4412C21.9333 19.5149 21.9637 19.6652 21.8895 19.7764L21.0111 21.0938C20.9372 21.2047 20.7873 21.2346 20.6763 21.1607L20.4522 21.0113C20.3412 20.9373 20.3113 20.7872 20.3855 20.6763Z" fill="#464655"/>
<path d="M21.7417 18.6468L22.6186 17.3296C22.6926 17.2186 22.8427 17.1885 22.9537 17.2627L23.1763 17.4116C23.2871 17.4856 23.3169 17.6354 23.2429 17.7462L22.3653 19.0616C22.2915 19.1723 22.142 19.2024 22.0311 19.1289L21.8091 18.9817C21.6979 18.908 21.6677 18.7579 21.7417 18.6468Z" fill="#464655"/>
</svg>
